<?xml version="1.0" encoding="utf-8"?>
<!-- Generator: Adobe Illustrator 22.1.0, SVG Export Plug-In . SVG Version: 6.00 Build 0)  -->
<svg version="1.1" id="Layer_1" xmlns="http://www.w3.org/2000/svg" xmlns:xlink="http://www.w3.org/1999/xlink" x="0px" y="0px"
	 viewBox="0 0 26 26" style="enable-background:new 0 0 26 26;" xml:space="preserve">
<style type="text/css">
	.st0{fill:#FFFFFF;}
</style>
<g>
	<path class="st0" d="M8.2,11.5c0.3,2.4,2.4,4.2,4.8,4.2s4.5-1.8,4.8-4.2l0.6-4.3c0-0.2,0-0.5,0-0.7c0-3-2.4-5.4-5.4-5.4
		c-0.2,0-0.5,0-0.7,0c-2.9,0.4-5,3.1-4.6,6.1L8.2,11.5z M16.4,7l-0.6,4.2c-0.2,1.4-1.4,2.4-2.8,2.4s-2.6-1.1-2.8-2.4L9.6,7l0,0
		c-0.1-0.5,0-1,0.1-1.4l0.7-0.4L12.8,6c0.1,0,0.2,0,0.3,0l2.3-0.8l0.8,0.4c0.1,0.3,0.2,0.6,0.2,1C16.4,6.7,16.4,6.8,16.4,7z"/>
	<path class="st0" d="M24.5,20.9l-0.3-2.3c-0.1-1.1-0.9-2-2-2.2l-3.9-1c-0.5-0.1-1.1,0.2-1.2,0.7c-0.1,0.5,0.2,1.1,0.7,1.2l3.9,1
		c0.3,0.1,0.5,0.3,0.5,0.6l0.3,2.3c0,0.1,0,0.1,0,0.2c0,0.4-0.2,0.8-0.4,1.1c-0.3,0.3-0.7,0.4-1.1,0.4H5c-0.1,0-0.1,0-0.2,0
		C4,22.7,3.4,22,3.5,21.2l0.3-2.3c0-0.3,0.2-0.5,0.5-0.6l3.9-1c0.5-0.1,0.9-0.7,0.7-1.2c-0.1-0.5-0.7-0.9-1.2-0.7l-3.9,1
		c-1.1,0.3-1.9,1.1-2,2.2l-0.3,2.3c-0.3,1.9,1.1,3.7,3,3.9c0.2,0,0.3,0,0.5,0h16c0.9,0,1.8-0.4,2.5-1c0.7-0.7,1-1.5,1-2.5
		C24.5,21.2,24.5,21,24.5,20.9z"/>
</g>
</svg>
