<?xml version="1.0" encoding="utf-8"?>
<!-- Generator: Adobe Illustrator 22.1.0, SVG Export Plug-In . SVG Version: 6.00 Build 0)  -->
<svg version="1.1" id="Layer_1" xmlns="http://www.w3.org/2000/svg" xmlns:xlink="http://www.w3.org/1999/xlink" x="0px" y="0px"
	 viewBox="0 0 20 20" style="enable-background:new 0 0 20 20;" xml:space="preserve">
<style type="text/css">
	.st0{fill:#FFFFFF;}
</style>
<g>
	<path class="st0" d="M10,0.1c-5.5,0-9.9,4.5-9.9,9.9s4.5,9.9,9.9,9.9s9.9-4.5,9.9-9.9S15.5,0.1,10,0.1z M10.1,18.2
		C10,18.2,10,18.2,10.1,18.2L10.1,18.2c-4.6,0-8.3-3.7-8.3-8.2c0,0,0,0,0-0.1c0-4.6,3.7-8.2,8.1-8.2H10c4.6,0,8.2,3.7,8.2,8.2l0,0
		C18.3,14.6,14.7,18.2,10.1,18.2z"/>
	<path class="st0" d="M10,14.4c0.5,0,0.8-0.4,0.8-0.9v-2.6h2.8c0.5,0,0.9-0.3,0.9-0.8s-0.3-0.8-0.8-0.8h-0.1h-2.8V6.4
		c0.1-0.4-0.2-0.9-0.7-0.9H10c-0.5,0-0.8,0.4-0.8,0.9v2.8H6.4c-0.5-0.1-0.9,0.2-1,0.7V10c0,0.5,0.4,0.8,0.9,0.8h2.8v2.6
		C9.2,14,9.5,14.4,10,14.4z"/>
</g>
</svg>
