<?xml version="1.0" encoding="utf-8"?>
<!-- Generator: Adobe Illustrator 22.1.0, SVG Export Plug-In . SVG Version: 6.00 Build 0)  -->
<svg version="1.1" id="Layer_1" xmlns="http://www.w3.org/2000/svg" xmlns:xlink="http://www.w3.org/1999/xlink" x="0px" y="0px"
	 viewBox="0 0 13.9 17.2" style="enable-background:new 0 0 13.9 17.2;" xml:space="preserve">
<style type="text/css">
	.st0{fill:#FFFFFF;}
</style>
<g>
	<path class="st0" d="M4.6,5.4H9c0.4,0,0.8-0.3,0.8-0.8S9.4,3.9,9,3.9H4.6c-0.4,0-0.8,0.3-0.8,0.8S4.2,5.4,4.6,5.4z"/>
	<path class="st0" d="M4.6,7.6H9c0.4,0,0.8-0.3,0.8-0.8S9.4,6.1,9,6.1H4.6c-0.4,0-0.8,0.3-0.8,0.8S4.2,7.6,4.6,7.6z"/>
	<path class="st0" d="M12.9,15.2h-1.1c0,0,0,0-0.1,0v-0.5c1.1-0.2,1.9-1.2,1.9-2.4V2.4c0-1.3-1.1-2.4-2.4-2.4H2.4C1.1,0,0,1.1,0,2.4
		v12.4c0,0,0,0.1,0,0.1C0,14.9,0,15,0,15c0,1,0.8,1.8,1.9,1.8h9.1c0,0,0,0,0,0s0,0,0,0h0.2c0.2,0.2,0.4,0.3,0.6,0.3h1.1
		c0.6,0,1-0.4,1-1S13.4,15.2,12.9,15.2z M1.5,2.4c0-0.5,0.4-0.9,0.9-0.9h8.8c0.5,0,0.9,0.4,0.9,0.9v9.9c0,0.5-0.4,0.9-0.9,0.9H1.9
		c-0.1,0-0.2,0-0.4,0V2.4z M1.5,15c0-0.2,0.2-0.3,0.4-0.3h8.3v0.7H1.9C1.7,15.4,1.5,15.2,1.5,15z"/>
</g>
</svg>
