<?xml version="1.0" encoding="utf-8"?>
<!-- Generator: Adobe Illustrator 22.1.0, SVG Export Plug-In . SVG Version: 6.00 Build 0)  -->
<svg version="1.1" id="Layer_1" xmlns="http://www.w3.org/2000/svg" xmlns:xlink="http://www.w3.org/1999/xlink" x="0px" y="0px"
	 viewBox="0 0 68 68" style="enable-background:new 0 0 68 68;" xml:space="preserve">
<style type="text/css">
	.st0{fill:url(#SVGID_1_);}
	.st1{fill:#FFFFFF;}
</style>
<g transform="matrix(1, 0, 0, 1, 329, 710)">
	
		<linearGradient id="SVGID_1_" gradientUnits="userSpaceOnUse" x1="-1172.98" y1="15.473" x2="-1172.98" y2="16.823" gradientTransform="matrix(50 0 0 50 58354 -1483.4015)">
		<stop  offset="0" style="stop-color:#FF7F32"/>
		<stop  offset="1" style="stop-color:#E84F2B"/>
	</linearGradient>
	<circle class="st0" cx="-295" cy="-676" r="33.8"/>
</g>
<path class="st1" d="M50.5,30.8h-13v-13c0-1.9-1.5-3.4-3.4-3.4s-3.4,1.5-3.4,3.4v13h-13c-1.9,0-3.4,1.5-3.4,3.4s1.5,3.4,3.4,3.4h13
	v13c0,1.9,1.5,3.4,3.4,3.4s3.4-1.5,3.4-3.4v-13h13c1.9,0,3.4-1.5,3.4-3.4S52.4,30.8,50.5,30.8z"/>
</svg>
