<?xml version="1.0" encoding="utf-8"?>
<!-- Generator: Adobe Illustrator 22.1.0, SVG Export Plug-In . SVG Version: 6.00 Build 0)  -->
<svg version="1.1" id="Layer_1" xmlns="http://www.w3.org/2000/svg" xmlns:xlink="http://www.w3.org/1999/xlink" x="0px" y="0px"
	 viewBox="0 0 33 33" style="enable-background:new 0 0 0 0;" xml:space="preserve">
<style type="text/css">
	.st0{fill:#FFFFFF;}
</style>
<rect y="0" width="33" height="33"/>
<path class="st0" d="M16,6.9c-5.5,0-10,4.5-10,10c0,5.5,4.5,10,10,10c5.5,0,10-4.5,10-10C26,11.4,21.5,7,16,6.9z M16.1,25.3
	C16.1,25.3,16.1,25.3,16.1,25.3L16.1,25.3c-4.6,0-8.4-3.7-8.4-8.3c0,0,0,0,0-0.1c0-4.6,3.7-8.3,8.2-8.3c0,0,0.1,0,0.1,0
	c4.6,0,8.3,3.7,8.3,8.3c0,0,0,0,0,0C24.4,21.5,20.7,25.3,16.1,25.3z"/>
<path class="st0" d="M21.1,16.9c0-0.2-0.1-0.4-0.3-0.6L17.5,13c-0.1-0.1-0.3-0.2-0.5-0.2c-0.4,0-0.7,0.3-0.7,0.7c0,0,0,0,0,0
	c0,0.2,0.1,0.4,0.2,0.5l1.2,1.2l1.2,1l-2.1-0.1h-5.1c-0.4,0-0.7,0.3-0.7,0.7c0,0,0,0,0,0c0,0.4,0.3,0.7,0.7,0.7c0,0,0,0,0,0h5.1
	l2.1-0.1l-1.2,1l-1.2,1.2c-0.1,0.1-0.2,0.3-0.2,0.5c0,0.4,0.3,0.7,0.7,0.7c0,0,0,0,0,0c0.2,0,0.4-0.1,0.5-0.2l3.3-3.3
	C21,17.4,21.1,17.2,21.1,16.9L21.1,16.9z"/>
</svg>
