<?xml version="1.0" encoding="utf-8"?>
<!-- Generator: Adobe Illustrator 22.1.0, SVG Export Plug-In . SVG Version: 6.00 Build 0)  -->
<svg version="1.1" id="Layer_1" xmlns="http://www.w3.org/2000/svg" xmlns:xlink="http://www.w3.org/1999/xlink" x="0px" y="0px"
	 viewBox="0 0 22.1 22" style="enable-background:new 0 0 22.1 22;" xml:space="preserve">
<style type="text/css">
	.st0{fill:#688CC4;}
</style>
<g>
	<path class="st0" d="M18.8,0C18.8,0,18.8,0,18.8,0H3.3C1.5,0,0,1.5,0,3.3v17.5l0,0.3l0.1,0.2c0.1,0.3,0.4,0.5,0.7,0.6
		C1.1,22,1.4,22,1.7,21.8L4,20.7l1.6,1.1C5.9,21.9,6.1,22,6.4,22c0.3,0,0.5-0.1,0.8-0.2l1.5-1l1.5,1c0.5,0.3,1.1,0.3,1.5,0l1.6-1.1
		l2.3,1.1L16,22l0.2,0c0.7,0,1.2-0.5,1.2-1.2V8.6h1.3c1.8,0,3.3-1.5,3.3-3.3V3.3C22.1,1.5,20.6,0,18.8,0z M15.5,3.3v16.1L14,18.7
		c-0.4-0.2-1-0.2-1.4,0.1L11,19.9l-1.5-1c-0.5-0.3-1.1-0.3-1.5,0l-1.5,1l-1.6-1.1c-0.2-0.2-0.5-0.2-0.8-0.2c-0.2,0-0.4,0-0.6,0.1
		L2,19.5V3.3C2,2.6,2.6,2,3.3,2h12.4C15.5,2.4,15.5,2.9,15.5,3.3z M20.1,5.2c0,0.7-0.6,1.3-1.3,1.3h-1.3V3.3C17.5,2.6,18,2,18.8,2
		s1.3,0.6,1.3,1.3V5.2z"/>
	<path class="st0" d="M5.1,13c0.2,0.2,0.5,0.3,0.7,0.3s0.5-0.1,0.7-0.3l2-2l2,2c0.2,0.2,0.5,0.3,0.7,0.3s0.5-0.1,0.7-0.3
		c0.4-0.4,0.4-1,0-1.4l-2-2l2-2c0.4-0.4,0.4-1,0-1.4s-1-0.4-1.4,0l-2,2l-2-2c-0.4-0.4-1-0.4-1.4,0s-0.4,1,0,1.4l2,2l-2,2
		C4.7,12,4.7,12.6,5.1,13z"/>
</g>
</svg>
