<?xml version="1.0" encoding="utf-8"?>
<!-- Generator: Adobe Illustrator 22.1.0, SVG Export Plug-In . SVG Version: 6.00 Build 0)  -->
<svg version="1.1" id="Layer_1" xmlns="http://www.w3.org/2000/svg" xmlns:xlink="http://www.w3.org/1999/xlink" x="0px" y="0px"
	 viewBox="0 0 23 23" style="enable-background:new 0 0 23 23;" xml:space="preserve">
<style type="text/css">
	.st0{fill:#6AA34A;}
	.st1{fill:#FFFFFF;}
</style>
<path class="st0" d="M11.5,0L11.5,0C17.9,0,23,5.1,23,11.5l0,0C23,17.9,17.9,23,11.5,23l0,0C5.1,23,0,17.9,0,11.5l0,0
	C0,5.1,5.1,0,11.5,0z"/>
<path class="st1" d="M16.7,8.3c0.4,0.4,0.4,1,0,1.4l-6,6c-0.4,0.4-1,0.4-1.4,0l-3-3c-0.4-0.4-0.4-1,0-1.4c0.4-0.4,1-0.4,1.4,0
	l2.3,2.3l5.3-5.3C15.7,7.9,16.3,7.9,16.7,8.3z"/>
</svg>
