<?xml version="1.0" encoding="utf-8"?>
<!-- Generator: Adobe Illustrator 22.1.0, SVG Export Plug-In . SVG Version: 6.00 Build 0)  -->
<svg version="1.1" id="Layer_1" xmlns="http://www.w3.org/2000/svg" xmlns:xlink="http://www.w3.org/1999/xlink" x="0px" y="0px"
	 viewBox="0 0 20 20" style="enable-background:new 0 0 20 20;" xml:space="preserve">
<style type="text/css">
	.st0{fill:#EDEDED;}
	.st1{fill:#1B365E;}
</style>
<circle class="st0" cx="10" cy="10" r="10"/>
<path class="st1" d="M11.1,10l3.4-3.4c0.3-0.3,0.3-0.8,0-1.1s-0.8-0.3-1.1,0L10,9L6.6,5.6c-0.3-0.3-0.8-0.3-1.1,0s-0.3,0.8,0,1.1
	l3.4,3.4l-3.4,3.4c-0.3,0.3-0.3,0.8,0,1.1c0.1,0.1,0.3,0.2,0.5,0.2s0.4-0.1,0.5-0.2l3.4-3.4l3.4,3.4c0.1,0.1,0.3,0.2,0.5,0.2
	s0.4-0.1,0.5-0.2c0.3-0.3,0.3-0.8,0-1.1L11.1,10z"/>
</svg>
