<?xml version="1.0" encoding="utf-8"?>
<!-- Generator: Adobe Illustrator 22.1.0, SVG Export Plug-In . SVG Version: 6.00 Build 0)  -->
<svg version="1.1" id="Layer_1" xmlns="http://www.w3.org/2000/svg" xmlns:xlink="http://www.w3.org/1999/xlink" x="0px" y="0px"
	 viewBox="0 0 19.5 21.7" style="enable-background:new 0 0 19.5 21.7;" xml:space="preserve">
<style type="text/css">
	.st0{fill:#E34647;}
</style>
<g>
	<path class="st0" d="M17.8,0h-16C0.8,0,0,0.8,0,1.7v3c0,0.7,0.5,1.4,1.1,1.6L2.3,19c0.1,1.5,1.4,2.7,2.9,2.7h9.1
		c1.5,0,2.8-1.1,2.9-2.7l1.1-12.7c0.7-0.3,1.1-0.9,1.1-1.6v-3C19.5,0.8,18.7,0,17.8,0z M1.8,1.5h16c0.1,0,0.3,0.1,0.3,0.3v2.4H1.5
		V1.7C1.5,1.6,1.6,1.5,1.8,1.5z M15.7,18.9c-0.1,0.7-0.7,1.3-1.4,1.3H5.2c-0.7,0-1.4-0.6-1.4-1.3L2.6,6.5h14.2L15.7,18.9z"/>
	<path class="st0" d="M8.3,10c-0.4,0-0.8,0.3-0.8,0.8v4.4c0,0.4,0.3,0.8,0.8,0.8S9,15.5,9,15.1v-4.4C9,10.3,8.7,10,8.3,10z"/>
	<path class="st0" d="M11.2,10c-0.4,0-0.8,0.3-0.8,0.8v4.4c0,0.4,0.3,0.8,0.8,0.8s0.8-0.3,0.8-0.8v-4.4C12,10.3,11.6,10,11.2,10z"/>
</g>
</svg>
