<?xml version="1.0" encoding="utf-8"?>
<!-- Generator: Adobe Illustrator 22.1.0, SVG Export Plug-In . SVG Version: 6.00 Build 0)  -->
<svg version="1.1" id="Layer_1" xmlns="http://www.w3.org/2000/svg" xmlns:xlink="http://www.w3.org/1999/xlink" x="0px" y="0px"
	 viewBox="0 0 22.7 22.7" style="enable-background:new 0 0 22.7 22.7;" xml:space="preserve">
<style type="text/css">
	.st0{fill:#688CC4;}
</style>
<g>
	<path class="st0" d="M22.6,10.8L21.5,8c-0.4-0.9-1.2-1.5-2.2-1.5c0,0,0,0,0,0H17V3.2C17,1.4,15.6,0,13.8,0H3.2C1.4,0,0,1.4,0,3.2
		v13.9c0,1.3,1,2.3,2.3,2.4c0,0,0,0,0,0c0,1.8,1.5,3.2,3.3,3.2s3.3-1.5,3.3-3.2c0,0,0,0,0,0h5.5c0,0,0,0,0,0c0,1.8,1.5,3.2,3.3,3.2
		s3.3-1.5,3.3-3.2c0,0,0,0,0-0.1c1.1-0.2,2-1.2,2-2.3v-5.4C22.7,11.4,22.7,11.1,22.6,10.8z M1.5,3.2c0-0.9,0.8-1.7,1.7-1.7h10.6
		c0.9,0,1.7,0.8,1.7,1.7v8.2c0,0.9-0.8,1.7-1.7,1.7H1.5V3.2z M5.5,21.2c-1,0-1.8-0.8-1.8-1.8s0.8-1.8,1.8-1.8s1.8,0.8,1.8,1.8
		S6.5,21.2,5.5,21.2z M17.5,21.2c-1,0-1.8-0.8-1.8-1.8s0.8-1.8,1.8-1.8s1.8,0.8,1.8,1.8S18.5,21.2,17.5,21.2z M21.2,17.1
		c0,0.5-0.4,0.9-0.9,0.9h0c-0.5-1-1.6-1.7-2.9-1.7S15.2,17,14.6,18c0,0,0,0,0,0H8.4c-0.5-1-1.6-1.7-2.9-1.7S3.2,17,2.6,18H2.4
		c-0.5,0-0.9-0.4-0.9-0.9v-2.5h12.3c1.8,0,3.2-1.4,3.2-3.2V8h2.2c0,0,0,0,0,0c0.4,0,0.7,0.2,0.8,0.6l1.1,2.8c0,0.1,0.1,0.2,0.1,0.3
		V17.1z"/>
	<path class="st0" d="M10.8,4.3L7.7,7.8L7,7.2c-0.3-0.3-0.8-0.3-1.1,0c-0.3,0.3-0.3,0.8,0,1.1l1.2,1.2c0.1,0.1,0.4,0.3,0.6,0.3
		c0,0,0,0,0,0c0.2,0,0.5-0.1,0.6-0.3l3.6-4c0.3-0.3,0.3-0.8-0.1-1.1C11.6,4,11.1,4,10.8,4.3z"/>
</g>
</svg>
