<?xml version="1.0" encoding="utf-8"?>
<!-- Generator: Adobe Illustrator 22.1.0, SVG Export Plug-In . SVG Version: 6.00 Build 0)  -->
<svg version="1.1" id="Layer_1" xmlns="http://www.w3.org/2000/svg" xmlns:xlink="http://www.w3.org/1999/xlink" x="0px" y="0px"
	 viewBox="0 0 144 93" style="enable-background:new 0 0 144 93;" xml:space="preserve">
<style type="text/css">
	.st0{fill:#25497E;}
	.st1{fill:#18396A;}
	.st2{fill:#0E284D;}
	.st3{fill:none;stroke:#E34647;stroke-width:4;stroke-linecap:round;}
</style>
<g>
	<g transform="translate(39.807 1.56)">
		<path class="st0" d="M46.8,5.2v35.5c0,2.3-1.9,4.2-4.2,4.2l0,0H4c-2.3-0.1-4.2-1.9-4.2-4.2l0,0V5.2C-0.2,2.9,1.7,1,4,1l0,0h38.7
			C45,1,46.8,2.9,46.8,5.2z"/>
	</g>
	<g transform="translate(14.915 45.409)">
		<path class="st0" d="M48.3,5.2v35.5c0,2.3-1.9,4.2-5.5,4.2H-0.2L1.2,5.2C1.2,2.9,3,1,5.3,1l0,0H44C46.4,1,48.3,2.9,48.3,5.2
			L48.3,5.2z"/>
	</g>
	<g transform="translate(20.822 68.873)">
		<g transform="translate(0.614 12.724)">
			<path class="st1" d="M14.6,1.9c0,0.5-0.4,0.9-0.9,0.9h-13C0.2,2.9-0.2,2.4-0.2,1.9S0.2,1,0.7,1l0,0h12.9
				C14.2,1,14.6,1.4,14.6,1.9L14.6,1.9z"/>
		</g>
		<g transform="translate(8.904)">
			<path class="st1" d="M6.6,5.3C6.4,5.5,6.2,5.6,6,5.6c-0.3,0-0.5-0.1-0.7-0.3l-0.9-1v7c0,0.5-0.4,0.9-0.9,0.9s-0.9-0.4-0.9-0.9
				V4.2L1.4,5.3c-0.4,0.4-1,0.3-1.3,0c-0.3-0.4-0.3-0.9,0-1.3l2.7-2.7C2.9,1.2,3,1.2,3.1,1.1h0.1c0.3-0.1,0.7,0,0.9,0.3L6.7,4
				C7,4.4,7,5,6.6,5.3L6.6,5.3z"/>
		</g>
		<path class="st1" d="M0.1,5.3c-0.4-0.4-0.4-1,0-1.3l2.7-2.7C2.9,1.2,3,1.2,3.1,1.1h0.1c0.1,0,0.2,0,0.3,0c0.3,0,0.5,0.1,0.7,0.3
			L6.7,4C7,4.4,7,5,6.6,5.3s-1,0.3-1.3,0l0,0l-0.9-1v7c0,0.5-0.4,0.9-0.9,0.9s-0.9-0.4-0.9-0.9V4.2L1.4,5.3C1,5.7,0.4,5.7,0.1,5.3
			L0.1,5.3z"/>
	</g>
	<g transform="translate(0 0.003)">
		<path class="st0" d="M110.3,50.6v35.5c0,2.3-1.9,4.2-4.2,4.2H63.1V46.4H106C108.3,46.4,110.3,48.3,110.3,50.6z"/>
	</g>
	<g transform="translate(4.541 23.464)">
		<g transform="translate(0.614 12.724)">
			<path class="st1" d="M77.9,47.3c0,0.5-0.4,0.9-0.9,0.9H64.2c-0.5,0-0.9-0.4-0.9-0.9s0.4-0.9,0.9-0.9l0,0h12.9
				C77.5,46.4,77.9,46.8,77.9,47.3L77.9,47.3z"/>
		</g>
		<g transform="translate(8.906)">
			<path class="st1" d="M69.9,50.7c-0.1,0.2-0.4,0.3-0.6,0.3c-0.3,0-0.5-0.1-0.7-0.3l-0.9-1v7c0,0.5-0.4,0.9-0.9,0.9
				s-0.9-0.4-0.9-0.9v-7.1l-1.1,1.2c-0.4,0.4-1,0.3-1.3,0c-0.3-0.4-0.3-0.9,0-1.3l2.7-2.7c0.1-0.1,0.2-0.1,0.3-0.2h0.1
				c0.1,0,0.2,0,0.3,0c0.3,0,0.5,0.1,0.7,0.3l2.5,2.7C70.3,49.8,70.3,50.4,69.9,50.7z"/>
		</g>
		<path class="st1" d="M63.4,50.7c-0.4-0.4-0.4-1,0-1.3l2.7-2.7c0.1-0.1,0.2-0.1,0.3-0.2h0.1c0.1,0,0.2,0,0.3,0
			c0.3,0,0.5,0.1,0.7,0.3l2.5,2.7c0.3,0.4,0.3,1-0.1,1.3l0,0c-0.4,0.3-1,0.3-1.3,0l0,0l-0.9-1v7c0,0.5-0.4,0.9-0.9,0.9
			s-0.9-0.4-0.9-0.9v-7.1l-1.1,1.2C64.4,51.1,63.8,51.1,63.4,50.7z"/>
	</g>
	<g transform="translate(44.347 25.026)">
		<g transform="translate(0.614 12.723)">
			<path class="st1" d="M14.6,1.9c0,0.5-0.4,0.9-0.9,0.9h-13C0.2,2.9-0.2,2.4-0.2,1.9S0.2,1,0.7,1h12.9C14.2,1,14.6,1.4,14.6,1.9
				L14.6,1.9z"/>
		</g>
		<g transform="translate(8.906)">
			<path class="st1" d="M6.6,5.3C6.4,5.5,6.2,5.6,6,5.6c-0.3,0-0.5-0.1-0.7-0.3l-0.9-1v7c0,0.5-0.4,0.9-0.9,0.9s-0.9-0.4-0.9-0.9
				V4.2L1.4,5.3c-0.4,0.4-1,0.4-1.3,0c-0.4-0.4-0.4-1,0-1.3l0,0l2.7-2.7C2.9,1.2,3,1.2,3.1,1.1h0.1c0.1,0,0.2,0,0.3,0
				c0.3,0,0.5,0.1,0.7,0.3L6.7,4C7,4.4,7,5,6.6,5.3z"/>
		</g>
		<path class="st1" d="M0.1,5.3c-0.4-0.4-0.4-1,0-1.3l2.7-2.7C2.9,1.2,3,1.2,3.1,1.1h0.1c0.1,0,0.2,0,0.2,0c0.3,0,0.5,0.1,0.7,0.3
			L6.7,4C7,4.4,7,5,6.6,5.3l0,0C6.4,5.5,6.2,5.6,6,5.6c-0.3,0-0.5-0.1-0.7-0.3l-0.9-1v7c0,0.5-0.4,0.9-0.9,0.9s-0.9-0.4-0.9-0.9l0,0
			V4.2L1.4,5.3C1,5.7,0.4,5.7,0.1,5.3L0.1,5.3z"/>
	</g>
	<g transform="translate(98.259 58.249)">
		<path class="st0" d="M30.9,16.5c0,8.6-6.9,15.6-15.5,15.6s-15.6-7-15.6-15.5C-0.2,8,6.7,1,15.3,1l0,0C23.9,1,30.9,8,30.9,16.5z"/>
	</g>
	<g transform="translate(111.583 58.254)">
		<path class="st1" d="M17.6,16.5c0,8.6-6.9,15.6-15.5,15.6l0,0c-0.7,0-1.5-0.1-2.2-0.2c8.5-1.2,14.4-9.1,13.1-17.6
			C12,7.5,6.6,2.2-0.2,1.2C0.5,1.1,1.3,1,2,1C10.6,1,17.6,7.9,17.6,16.5L17.6,16.5z"/>
	</g>
	<path class="st2" d="M130.8,74.8c0-9.4-7.7-17.1-17.1-17.1c-0.6,0-1.2,0-1.9,0.1v-7.2c0-3.2-2.6-5.7-5.7-5.7H87.7
		c0.4-0.8,0.6-1.7,0.6-2.6V6.7c0-3.2-2.6-5.7-5.7-5.7H43.8c-3.2,0-5.7,2.6-5.7,5.7v35.5c0,0.9,0.2,1.8,0.6,2.6H20.2
		c-3.2,0-5.7,2.6-5.7,5.7v38.1H1.4l0,0c-0.9,0-1.6,0.7-1.6,1.6s0.7,1.6,1.6,1.6H16c0,0,0,0,0.1,0h14.4l0,0h0.6
		c0.9,0,1.6-0.7,1.6-1.6s-0.7-1.6-1.6-1.6H17.6v-38c0-1.4,1.2-2.6,2.6-2.6h11v12.8c0,1.1,0.9,2,2,2c0.5,0,0.9-0.2,1.3-0.5l5.1-4.5
		l5.2,4.5c0.4,0.3,0.8,0.5,1.3,0.5c0.3,0,0.6-0.1,0.8-0.2c0.7-0.3,1.2-1,1.2-1.8V48h13.5v40.7H39.3l0,0H39c-0.9,0-1.6,0.7-1.6,1.6
		s0.7,1.6,1.6,1.6l86.4,0.1l0,0c0.9,0,1.6-0.7,1.6-1.6s-0.7-1.6-1.6-1.6h-1.9l0,0C128.1,85.5,130.8,80.3,130.8,74.8z M108.7,50.6
		v7.9c-9,2.7-14.1,12.3-11.4,21.3c1.1,3.6,3.3,6.7,6.4,8.9H64.8V48h13.5v12.8c0,0.8,0.5,1.5,1.2,1.8s1.5,0.2,2.1-0.3l5.1-4.4
		l5.1,4.5c0.4,0.3,0.8,0.5,1.3,0.5c0.3,0,0.6-0.1,0.8-0.2c0.7-0.3,1.1-1,1.2-1.8V48h10.9C107.4,48,108.7,49.1,108.7,50.6z M91.9,48
		v10.3l-4-3.5c-0.4-0.3-0.8-0.5-1.3-0.5s-0.9,0.2-1.3,0.5l-4,3.4V48H91.9z M68.4,4.1v10.3l-4-3.5c-0.8-0.6-1.9-0.6-2.6,0l-4,3.4V4.1
		H68.4z M41.3,42.2V6.7c0-1.4,1.2-2.6,2.6-2.6h10.9v12.8c0,1.1,0.9,2,2,2c0.5,0,1-0.2,1.3-0.5l5.1-4.5l5.1,4.5
		c0.8,0.7,2.1,0.6,2.8-0.2c0.3-0.4,0.5-0.8,0.5-1.3V4.1h10.9c1.4,0,2.6,1.2,2.6,2.6l0,0v35.5c0,1.4-1.2,2.6-2.6,2.6l0,0
		c-16.5,0,9,0-38.7,0C42.3,44.8,41.3,43.7,41.3,42.2L41.3,42.2z M44.9,58.3l-4-3.4c-0.7-0.6-1.9-0.6-2.6,0l-4,3.4V48h10.6V58.3z
		 M113.2,88.8c-7.7-0.3-13.7-6.8-13.4-14.5s6.8-13.7,14.5-13.4s13.7,6.8,13.4,14.5c-0.3,7.2-6,13-13.1,13.4c-0.1,0-0.2,0-0.3,0
		H113.2z"/>
	<path class="st2" d="M142.6,88.8h-7.7l0,0c-0.9,0-1.6,0.7-1.6,1.6s0.7,1.6,1.6,1.6h7.7l0,0c0.9,0,1.6-0.7,1.6-1.6
		S143.5,88.8,142.6,88.8L142.6,88.8z"/>
	<line class="st3" x1="108.8" y1="69.4" x2="118.9" y2="79.6"/>
	<line class="st3" x1="118.9" y1="69.4" x2="108.8" y2="79.6"/>
</g>
</svg>
