<?xml version="1.0" encoding="utf-8"?>
<!-- Generator: Adobe Illustrator 22.1.0, SVG Export Plug-In . SVG Version: 6.00 Build 0)  -->
<svg version="1.1" id="Layer_1" xmlns="http://www.w3.org/2000/svg" xmlns:xlink="http://www.w3.org/1999/xlink" x="0px" y="0px"
	 viewBox="0 0 21 21" style="enable-background:new 0 0 21 21;" xml:space="preserve">
<style type="text/css">
	.st0{fill:#FFFFFF;}
</style>
<path class="st0" d="M17.2,11.6c-2.6-0.5-5.1,1.1-5.6,3.7H1c-0.5,0-0.9,0.4-0.9,0.9c0,0.5,0.4,1,0.9,1h10.6c0.4,1.9,1.8,3.3,3.7,3.7
	c2.6,0.5,5.1-1.1,5.6-3.7S19.8,12.1,17.2,11.6z M16.2,19.1c-1.6,0-2.9-1.3-2.9-2.9c0-1.6,1.3-2.9,2.9-2.9v0c0,0,0,0,0,0
	c1.6,0,2.9,1.3,2.9,2.9C19.1,17.8,17.8,19.1,16.2,19.1z"/>
<path class="st0" d="M20,3.8h-7.7c-0.4-1.9-1.8-3.3-3.7-3.7C6-0.4,3.5,1.2,3,3.8H1c0,0,0,0-0.1,0C0.4,3.8,0,4.3,0,4.8
	c0,0.5,0.5,0.9,1,0.9h2C3.4,7.6,4.8,9,6.7,9.4c2.6,0.5,5.1-1.1,5.6-3.7H20c0,0,0,0,0.1,0c0.5,0,0.9-0.5,0.9-1
	C21,4.2,20.5,3.8,20,3.8z M7.6,7.6c-1.6,0-2.9-1.3-2.9-2.9c0-1.6,1.3-2.9,2.9-2.9v0c0,0,0,0,0,0c1.6,0,2.9,1.3,2.9,2.9
	C10.5,6.3,9.2,7.6,7.6,7.6z"/>
</svg>
