<?xml version="1.0" encoding="utf-8"?>
<!-- Generator: Adobe Illustrator 22.1.0, SVG Export Plug-In . SVG Version: 6.00 Build 0)  -->
<svg version="1.1" id="Layer_1" xmlns="http://www.w3.org/2000/svg" xmlns:xlink="http://www.w3.org/1999/xlink" x="0px" y="0px"
	 viewBox="0 0 26 26.1" style="enable-background:new 0 0 26 26.1;" xml:space="preserve">
<style type="text/css">
	.st0{fill:#FFFFFF;}
</style>
<path class="st0" d="M8.8,24.2c-0.1,0-0.2,0-0.4-0.1c-0.3-0.2-0.4-0.6-0.2-1l1.8-3c0.6-1,1.6-1.6,2.7-1.6h9.4c1,0,1.8-0.8,1.8-1.8
	V5.1c0-1-0.8-1.8-1.8-1.8H3.8C2.8,3.3,2,4.1,2,5.1v11.7c0,1,0.8,1.8,1.8,1.8h2.5c0.4,0,0.7,0.3,0.7,0.7S6.7,20,6.3,20H3.8
	c-1.8,0-3.2-1.4-3.2-3.2V5.1c0-1.8,1.4-3.2,3.2-3.2h18.4c1.8,0,3.2,1.4,3.2,3.2v11.7c0,1.8-1.4,3.2-3.2,3.2h-9.4
	c-0.6,0-1.2,0.3-1.5,0.9l-1.8,3C9.3,24,9.1,24.2,8.8,24.2z"/>
<path class="st0" d="M17.2,10H8.8c-0.4,0-0.7-0.3-0.7-0.7s0.3-0.7,0.7-0.7h8.4c0.4,0,0.7,0.3,0.7,0.7S17.6,10,17.2,10z"/>
<path class="st0" d="M17.2,13.3H8.8c-0.4,0-0.7-0.3-0.7-0.7s0.3-0.7,0.7-0.7h8.4c0.4,0,0.7,0.3,0.7,0.7S17.6,13.3,17.2,13.3z"/>
</svg>
