<?xml version="1.0" encoding="utf-8"?>
<!-- Generator: Adobe Illustrator 22.1.0, SVG Export Plug-In . SVG Version: 6.00 Build 0)  -->
<svg version="1.1" id="Layer_1" xmlns="http://www.w3.org/2000/svg" xmlns:xlink="http://www.w3.org/1999/xlink" x="0px" y="0px"
	 viewBox="0 0 14.6 14.6" style="enable-background:new 0 0 14.6 14.6;" xml:space="preserve">
<style type="text/css">
	.st0{fill:#FFFFFF;}
</style>
<path class="st0" d="M7.3,0C3.3,0,0,3.3,0,7.3s3.3,7.3,7.3,7.3s7.3-3.3,7.3-7.3S11.3,0,7.3,0z M6.3,3.7c0-0.5,0.4-1,1-1l0,0
	c0.5,0,1,0.4,1,1l0,0c0,0.5-0.4,1-0.9,1l0,0l0,0C6.7,4.7,6.3,4.3,6.3,3.7L6.3,3.7z M9.1,11.4C9,11.4,9,11.4,9.1,11.4h-3
	c-0.3,0-0.5-0.2-0.5-0.5l0,0c0-0.3,0.2-0.5,0.5-0.5l0,0H7V7H6.2C5.9,7,5.7,6.8,5.7,6.5l0,0C5.7,6.2,5.9,6,6.2,6l0,0h1.4
	C8,6,8.2,6.3,8.2,6.7v3.8h0.9c0.3,0,0.5,0.2,0.5,0.5l0,0C9.6,11.2,9.3,11.4,9.1,11.4z"/>
</svg>
