<?xml version="1.0" encoding="utf-8"?>
<!-- Generator: Adobe Illustrator 22.1.0, SVG Export Plug-In . SVG Version: 6.00 Build 0)  -->
<svg version="1.1" id="Layer_1" xmlns="http://www.w3.org/2000/svg" xmlns:xlink="http://www.w3.org/1999/xlink" x="0px" y="0px"
	 viewBox="0 0 14.5 19.5" style="enable-background:new 0 0 14.5 19.5;" xml:space="preserve">
<style type="text/css">
	.st0{fill:#5F8CC9;}
</style>
<path class="st0" d="M12.3,15L12.3,15l0-2c0-1.2-0.7-2.4-1.9-2.8L9.3,9.7l1.1-0.5c1.1-0.5,1.9-1.6,1.9-2.8V4.5h0
	c1.2,0,2.3-1,2.3-2.3S13.5,0,12.3,0h-10C1,0,0,1,0,2.3s1,2.3,2.3,2.3h0.3v1.9c0,1.2,0.7,2.4,1.9,2.8l1.1,0.5l-1.1,0.5
	c-1.1,0.5-1.9,1.6-1.9,2.8v2H2.3C1,15,0,16,0,17.3s1,2.3,2.3,2.3h10c1.2,0,2.3-1,2.3-2.3S13.5,15,12.3,15z M1.5,2.3
	c0-0.4,0.3-0.8,0.8-0.8h10c0.4,0,0.8,0.3,0.8,0.8S12.7,3,12.3,3h-10C1.8,3,1.5,2.7,1.5,2.3z M5,7.9C4.4,7.6,4,7,4,6.4V4.5h6.7v1.9
	c0,0.6-0.4,1.2-1,1.5l-2.4,1L5,7.9z M4,13c0-0.6,0.4-1.2,1-1.5l2.4-1l2.4,1c0.6,0.3,1,0.8,1,1.5v2H4V13z M12.3,18h-10
	c-0.4,0-0.8-0.3-0.8-0.8s0.3-0.8,0.8-0.8h10c0.4,0,0.8,0.3,0.8,0.8S12.7,18,12.3,18z"/>
</svg>
