<svg enable-background="new 0 0 357 100" fill="none" viewBox="0 0 357 100" xmlns="http://www.w3.org/2000/svg"><path d="m0 0h357v100h-357z"/><g fill="#fff"><path d="m341.8 34.3c-2.7 0-5 2.2-5 5s2.2 5 5 5c2.7 0 5-2.2 5-5-.1-2.8-2.3-5-5-5zm0 9.1c-2.3 0-4.1-1.8-4.2-4.1 0-2.3 1.8-4.1 4.1-4.2 2.3 0 4.1 1.8 4.2 4.1 0 2.4-1.9 4.2-4.1 4.2z"/><path d="m343.8 37.9c0-.9-.7-1.7-2-1.7-.5 0-1 .1-1.5.3v5.5h.9v-2.5h.1l1.6 2.5h1.1l-1.8-2.5c.9 0 1.6-.7 1.6-1.6zm-2.7 1.1v-1.9c.2 0 .3-.1.5-.1.5 0 1.2.2 1.2.9 0 .8-.5 1.1-1.3 1.1z"/><path d="m287.1 39.1c-2.9-.1-5.6 1.2-7.2 3.6h-.1v-16.8h-8v36.4h8v-11.5c0-2.6 1-5.3 4.2-5.3s3.6 2.7 3.6 5.3v11.5h8v-13.8c-.1-5.7-2.8-9.4-8.5-9.4z"/><path d="m303.3 26.7c-2.5 0-4.5 2-4.5 4.5s2 4.5 4.5 4.5 4.5-2 4.5-4.5c0-2.5-2-4.5-4.5-4.5z"/><path d="m299.3 39.8h8v22.5h-8z"/><path d="m326.4 39.1c-2.7-.1-5.2 1.1-6.8 3.3h-.1v-2.5h-8v33.7h8v-13.4c1.8 1.9 4.3 3 7 2.9 6.7 0 11.3-5.4 11.3-11.9-.1-6.5-4.7-12.1-11.4-12.1zm-2.1 17c-2.6.2-4.9-1.8-5.1-4.5 0-.2 0-.4 0-.6 0-2.8 2.4-5.1 5.2-5.1s5 2.3 5.1 5.1c.1 2.7-1.9 4.9-4.6 5-.2.1-.4.1-.6.1z"/><path d="m260.6 42.1-2.2-.7c-1.5-.5-3.8-1.2-3.8-3.2 0-1.8 2.1-2.8 3.7-2.8 2.1 0 4.1.8 5.7 2.2l3.4-6.7c-3.2-1.7-6.7-2.7-10.4-2.7-6.6 0-11.4 4.4-11.4 11.1 0 6.4 3.6 7.8 8.9 9.3 1.8.5 5.2 1.4 5.2 3.8 0 2.3-2.1 3.3-4.2 3.3-2.9 0-5.5-1.5-7.6-3.4l-3.7 6.9c3.4 2.4 7.5 3.7 11.6 3.8 3.4.1 6.7-1 9.4-3.1 2.6-2.2 3.4-5.6 3.4-8.9.1-5.2-3.4-7.5-8-8.9z"/><path d="m167.2 39.1c-3.1-.1-6.1 1.6-7.6 4.3-1.5-2.8-4.5-4.5-7.7-4.3-2.8-.1-5.5 1.2-7.1 3.5h-.1v-2.8h-8v22.5h8v-10.7c0-2.5 0-6.3 3.6-6.3s3.5 3.8 3.5 6.3v10.7h8v-10.7c0-2.7.1-6.1 3.8-6.1 3.4 0 3.3 3.8 3.3 6.1v10.7h8v-14.3c-.1-5.2-2.1-8.9-7.7-8.9z"/><path d="m194.9 42c-1.8-1.9-4.3-3-7-2.9-6.7 0-11.3 5.5-11.3 12s4.7 12 11.4 12c2.6 0 5.4-1 6.8-3.2h.1v2.5h8v-22.6h-8zm-4.8 14.1c-2.6.2-4.9-1.8-5.1-4.5 0-.2 0-.4 0-.6 0-2.8 2.3-5.1 5.1-5.1s5.1 2.3 5.1 5.1c.1 2.7-1.9 4.9-4.6 5-.2.1-.3.1-.5.1z"/><path d="m214.8 43.5-.1-3.7h-8v22.5h8v-9.1c0-3.9 1.1-6.8 5.5-6.8 1.2-.1 2.3.2 3.4.7v-7.7h-1.5c-3-.1-5.8 1.5-7.3 4.1z"/><path d="m237.2 33.1h-8v6.7h-2.6v6.6h2.6v15.9h8v-15.9h4.5v-6.6h-4.5z"/><path d="m125.4 42.1-2.2-.7c-1.5-.5-3.8-1.2-3.8-3.2 0-1.8 2.1-2.8 3.7-2.8 2.1 0 4.1.8 5.7 2.2l3.4-6.7c-3.2-1.7-6.7-2.7-10.4-2.7-6.6 0-11.4 4.4-11.4 11.1 0 6.4 3.6 7.8 8.9 9.3 1.8.5 5.2 1.4 5.2 3.8 0 2.3-2.1 3.3-4.2 3.3-2.9 0-5.5-1.5-7.6-3.4l-3.7 6.9c3.4 2.4 7.5 3.7 11.6 3.8 3.4.1 6.7-1 9.4-3.1 2.6-2.2 3.4-5.6 3.4-8.9.2-5.2-3.3-7.5-8-8.9z"/><path d="m50.3 61.8-18.9-11.4-21.4 12.8 40.3 24.2 40.3-24.2-21.3-12.8z"/><path d="m50.3 37.7 19 11.3 21.4-12.8-40.4-24.2-40.3 24.2 21.4 12.8z"/><path d="m28 49.7-18-10.7v21.5z"/><path d="m90.6 60.5v-21.5l-17.9 10.7z"/></g></svg>