<?xml version="1.0" encoding="utf-8"?>
<!-- Generator: Adobe Illustrator 22.1.0, SVG Export Plug-In . SVG Version: 6.00 Build 0)  -->
<svg version="1.1" id="Layer_1" xmlns="http://www.w3.org/2000/svg" xmlns:xlink="http://www.w3.org/1999/xlink" x="0px" y="0px"
	 viewBox="0 0 28 28" style="enable-background:new 0 0 28 28;" xml:space="preserve">
<style type="text/css">
	.st0{fill:#606060;}
</style>
<g>
	<path class="st0" d="M4.2,18.2C1.9,18.2,0,16.3,0,14s1.9-4.2,4.2-4.2s4.2,1.9,4.2,4.2C8.3,16.3,6.5,18.2,4.2,18.2z M4.2,11.8
		C3,11.8,2,12.8,2,14s1,2.2,2.2,2.2s2.2-1,2.2-2.2C6.3,12.8,5.4,11.8,4.2,11.8z"/>
	<path class="st0" d="M14,18.2c-2.3,0-4.2-1.9-4.2-4.2s1.9-4.2,4.2-4.2s4.2,1.9,4.2,4.2C18.2,16.3,16.3,18.2,14,18.2z M14,11.8
		c-1.2,0-2.2,1-2.2,2.2s1,2.2,2.2,2.2s2.2-1,2.2-2.2S15.2,11.8,14,11.8z"/>
	<path class="st0" d="M23.8,18.2c-2.3,0-4.2-1.9-4.2-4.2s1.9-4.2,4.2-4.2S28,11.7,28,14S26.1,18.2,23.8,18.2z M23.8,11.8
		c-1.2,0-2.2,1-2.2,2.2s1,2.2,2.2,2.2s2.2-1,2.2-2.2S25,11.8,23.8,11.8z"/>
</g>
</svg>
