<?xml version="1.0" encoding="utf-8"?>
<!-- Generator: Adobe Illustrator 22.1.0, SVG Export Plug-In . SVG Version: 6.00 Build 0)  -->
<svg version="1.1" id="Layer_1" xmlns="http://www.w3.org/2000/svg" xmlns:xlink="http://www.w3.org/1999/xlink" x="0px" y="0px"
	 viewBox="0 0 19.8 24.7" style="enable-background:new 0 0 19.8 24.7;" xml:space="preserve">
<style type="text/css">
	.st0{fill:#FFFFFF;}
</style>
<g>
	<path class="st0" d="M6.6,7.3H13c0.4,0,0.7-0.3,0.7-0.7c0-0.4-0.3-0.8-0.7-0.8H6.6c-0.4,0-0.7,0.3-0.7,0.7C5.9,6.9,6.2,7.3,6.6,7.3
		z"/>
	<path class="st0" d="M6.6,10.6H13c0.4,0,0.7-0.3,0.7-0.7c0.1-0.5-0.3-0.8-0.7-0.8H6.6c-0.4,0-0.8,0.3-0.8,0.8
		C5.8,10.3,6.2,10.6,6.6,10.6z"/>
	<path class="st0" d="M18.7,22.7h-1.6c-0.2,0-0.3,0.1-0.5,0.1v-1.7c1.6-0.2,2.9-1.5,2.9-3.2V3.3c0-1.8-1.4-3.2-3.2-3.2h-13
		c-1.8,0-3.2,1.4-3.2,3.2v18.3c0,0.1,0,0.1,0,0.1c0,0.1,0,0.2,0,0.3c0,1.3,1.1,2.4,2.4,2.4h14c0.2,0.2,0.4,0.2,0.6,0.2h1.6
		c0.6,0,1-0.4,1-1C19.7,23.1,19.3,22.7,18.7,22.7z M1.6,3.3c0-0.9,0.8-1.7,1.7-1.7h13c0.9,0,1.7,0.8,1.7,1.7v14.6
		c0,0.9-0.8,1.7-1.7,1.7h-0.4l0,0l0,0H2.5c-0.3,0-0.6,0.1-0.9,0.2C1.6,19.8,1.6,3.3,1.6,3.3z M1.6,22c0-0.5,0.4-0.9,0.9-0.9h12.6
		v1.8H2.5C2,22.9,1.6,22.5,1.6,22z"/>
</g>
</svg>
