<?xml version="1.0" encoding="utf-8"?>
<!-- Generator: Adobe Illustrator 22.1.0, SVG Export Plug-In . SVG Version: 6.00 Build 0)  -->
<svg version="1.1" id="Layer_1" xmlns="http://www.w3.org/2000/svg" xmlns:xlink="http://www.w3.org/1999/xlink" x="0px" y="0px"
	 viewBox="0 0 22 26.8" style="enable-background:new 0 0 22 26.8;" xml:space="preserve">
<style type="text/css">
	.st0{fill:#688CC4;}
</style>
<g>
	<path class="st0" d="M21,21.5H8c-0.1,0-0.2,0-0.2,0c-0.4-1.3-1.5-2.3-2.8-2.6V3.6C5,1.6,3.4,0,1.4,0H1C0.4,0,0,0.4,0,1s0.4,1,1,1
		h0.4C2.3,2,3,2.7,3,3.6v15.4c-1.7,0.4-3,2-3,3.9c0,2.2,1.8,4,4,4c2,0,3.6-1.4,3.9-3.3c0,0,0.1,0,0.1,0H21c0.6,0,1-0.4,1-1
		S21.5,21.5,21,21.5z M4,24.8c-1.1,0-2-0.9-2-2s0.9-2,2-2s2,0.9,2,2S5.1,24.8,4,24.8z"/>
	<path class="st0" d="M9,19.8h9c1.7,0,3-1.3,3-3v-8c0-1.7-1.3-3-3-3H9c-1.7,0-3,1.3-3,3v8C6,18.5,7.3,19.8,9,19.8z M18,17.8H9
		c-0.6,0-1-0.4-1-1v-3.6h11v3.6C19,17.4,18.6,17.8,18,17.8z M9,7.8h9c0.6,0,1,0.4,1,1v2.4H8V8.8C8,8.3,8.4,7.8,9,7.8z"/>
</g>
</svg>
