<?xml version="1.0" encoding="utf-8"?>
<!-- Generator: Adobe Illustrator 22.1.0, SVG Export Plug-In . SVG Version: 6.00 Build 0)  -->
<svg version="1.1" id="Layer_1" xmlns="http://www.w3.org/2000/svg" xmlns:xlink="http://www.w3.org/1999/xlink" x="0px" y="0px"
	 viewBox="0 0 28 29.3" style="enable-background:new 0 0 28 29.3;" xml:space="preserve">
<style type="text/css">
	.st0{fill:#8895A8;}
</style>
<g>
	<path class="st0" d="M25.9,5.9l-10-5.4c-1.2-0.6-2.6-0.6-3.8,0l-10,5.4C0.8,6.6,0,7.9,0,9.4v10.4c0,1.5,0.8,2.8,2.1,3.5l10,5.4
		c0.6,0.3,1.2,0.5,1.9,0.5s1.3-0.2,1.9-0.5l10-5.4c1.3-0.7,2.1-2,2.1-3.5V9.4C28,7.9,27.2,6.6,25.9,5.9z M13.1,2.3
		C13.3,2.1,13.7,2,14,2s0.7,0.1,0.9,0.2l10,5.4c0.1,0.1,0.2,0.1,0.3,0.2L14,13.5l-4.3-2.2L15,8.5c0.5-0.3,0.7-0.9,0.4-1.4
		c-0.3-0.5-0.9-0.7-1.4-0.4l-6.6,3.5L2.7,7.9c0.1-0.1,0.2-0.2,0.3-0.2L13.1,2.3z M3.1,21.6c-0.6-0.3-1.1-1-1.1-1.8V9.7l4,2v7.4
		c0,0.6,0.4,1,1,1s1-0.4,1-1v-6.4l5,2.5V27L3.1,21.6z M24.9,21.6L15,27V15.2l11-5.5v10.1C26,20.6,25.6,21.2,24.9,21.6z"/>
	<path class="st0" d="M22.5,18.7l-5,2.6c-0.5,0.3-0.7,0.9-0.4,1.3c0.2,0.3,0.5,0.5,0.9,0.5c0.2,0,0.3,0,0.5-0.1l5-2.6
		c0.5-0.3,0.7-0.9,0.4-1.3C23.6,18.7,23,18.5,22.5,18.7z"/>
</g>
</svg>
