<?xml version="1.0" encoding="utf-8"?>
<!-- Generator: Adobe Illustrator 22.1.0, SVG Export Plug-In . SVG Version: 6.00 Build 0)  -->
<svg version="1.1" id="Layer_1" xmlns="http://www.w3.org/2000/svg" xmlns:xlink="http://www.w3.org/1999/xlink" x="0px" y="0px"
	 viewBox="0 0 24.2 24.2" style="enable-background:new 0 0 24.2 24.2;" xml:space="preserve">
<style type="text/css">
	.st0{fill:#FCFCFC;}
</style>
<g>
	<path class="st0" d="M21.6,6h-2.4V2.6C19.2,1.2,18,0,16.6,0h-9C6.2,0,5,1.2,5,2.6V6H2.6C1.2,6,0,7.2,0,8.6v7c0,1.4,1.2,2.6,2.6,2.6
		H5v3.4c0,1.4,1.2,2.6,2.6,2.6h9c1.4,0,2.6-1.2,2.6-2.6v-3.4h2.4c1.4,0,2.6-1.2,2.6-2.6v-7C24.2,7.2,23,6,21.6,6z M6.2,14.2H18v7.4
		c0,0.8-0.6,1.4-1.4,1.4h-9c-0.8,0-1.4-0.6-1.4-1.4V14.2z M18.6,13h-13C5.3,13,5,13.3,5,13.6V17H2.6c-0.8,0-1.4-0.6-1.4-1.4v-7
		c0-0.8,0.6-1.4,1.4-1.4h19c0.8,0,1.4,0.6,1.4,1.4v7c0,0.8-0.6,1.4-1.4,1.4h-2.4v-3.4C19.2,13.3,18.9,13,18.6,13z M18,6H6.2V2.6
		c0-0.8,0.6-1.4,1.4-1.4h9c0.8,0,1.4,0.6,1.4,1.4V6z"/>
	<path class="st0" d="M8.6,21.2h6c0.3,0,0.6-0.3,0.6-0.6S14.9,20,14.6,20h-6C8.3,20,8,20.3,8,20.6S8.3,21.2,8.6,21.2z"/>
	<path class="st0" d="M8.6,19.2h6c0.3,0,0.6-0.3,0.6-0.6S14.9,18,14.6,18h-6C8.3,18,8,18.3,8,18.6S8.3,19.2,8.6,19.2z"/>
	<path class="st0" d="M8.6,17.2h2c0.3,0,0.6-0.3,0.6-0.6S10.9,16,10.6,16h-2C8.3,16,8,16.3,8,16.6S8.3,17.2,8.6,17.2z"/>
</g>
</svg>
