<?xml version="1.0" encoding="utf-8"?>
<!-- Generator: Adobe Illustrator 22.1.0, SVG Export Plug-In . SVG Version: 6.00 Build 0)  -->
<svg version="1.1" id="Layer_1" xmlns="http://www.w3.org/2000/svg" xmlns:xlink="http://www.w3.org/1999/xlink" x="0px" y="0px"
	 viewBox="0 0 24 24" style="enable-background:new 0 0 24 24;" xml:space="preserve">
<style type="text/css">
	.st0{fill:#FFFFFF;}
</style>
<g transform="translate(0.887 1.306)">
	<path class="st0" d="M19,22.6H3.2c-2.2,0-4-1.8-4-4V2.8c0-2.2,1.8-4,4-4H19c2.2,0,4,1.8,4,4v15.8C23,20.8,21.2,22.6,19,22.6z
		 M3.2,0.8c-1.1,0-2,0.9-2,2v15.8c0,1.1,0.9,2,2,2H19c1.1,0,2-0.9,2-2V2.8c0-1.1-0.9-2-2-2C19,0.8,3.2,0.8,3.2,0.8z"/>
	<path class="st0" d="M3.8,17.9c-0.2,0-0.4-0.1-0.6-0.2c-0.5-0.3-0.6-0.9-0.3-1.4l3.7-5.2C7.3,10,8.8,9.6,10,10.3l3,1.7
		c0.2,0.1,0.3,0.1,0.5,0.1c0.2,0,0.3-0.2,0.4-0.3l3.7-6.7c0.3-0.5,0.9-0.7,1.4-0.4c0.5,0.3,0.7,0.9,0.4,1.4l-3.7,6.7
		c-0.4,0.7-0.9,1.1-1.6,1.3c-0.7,0.2-1.4,0.1-2-0.3L9,12c-0.3-0.2-0.7-0.1-0.9,0.2l-3.7,5.2C4.4,17.8,4.1,17.9,3.8,17.9z"/>
</g>
</svg>
