<?xml version="1.0" encoding="utf-8"?>
<!-- Generator: Adobe Illustrator 22.1.0, SVG Export Plug-In . SVG Version: 6.00 Build 0)  -->
<svg version="1.1" id="Layer_1" xmlns="http://www.w3.org/2000/svg" xmlns:xlink="http://www.w3.org/1999/xlink" x="0px" y="0px"
	 viewBox="0 0 28 28" style="enable-background:new 0 0 28 28;" xml:space="preserve">
<style type="text/css">
	.st0{fill:#FFFFFF;}
</style>
<path class="st0" d="M14.9,26.3h-1.8c-1.4,0-2.5-1-2.6-2.4c-0.4-0.1-0.7-0.3-1.1-0.5c-1,0.8-2.6,0.8-3.5-0.2l-1.3-1.3
	c-1-1-1-2.5-0.2-3.5c-0.2-0.4-0.3-0.7-0.5-1.1c-1.3-0.1-2.4-1.3-2.4-2.6v-1.8c0-1.4,1-2.5,2.4-2.6c0.1-0.4,0.3-0.7,0.5-1.1
	c-0.8-1-0.8-2.6,0.2-3.5l1.3-1.3c1-1,2.5-1,3.5-0.2c0.4-0.2,0.7-0.3,1.1-0.5c0.1-1.3,1.3-2.4,2.6-2.4h1.8c1.4,0,2.5,1,2.6,2.4
	c0.4,0.1,0.7,0.3,1.1,0.5c1-0.8,2.6-0.8,3.5,0.2l1.3,1.3c1,1,1,2.5,0.2,3.5c0.2,0.4,0.3,0.7,0.5,1.1c1.3,0.1,2.4,1.3,2.4,2.6v1.8
	c0,1.4-1,2.5-2.4,2.6c-0.1,0.4-0.3,0.7-0.5,1.1c0.8,1,0.8,2.6-0.2,3.5l-1.3,1.3c-1,1-2.5,1-3.5,0.2c-0.4,0.2-0.7,0.3-1.1,0.5
	C17.4,25.3,16.2,26.3,14.9,26.3z M9.1,21.4l0.6,0.3c0.6,0.3,1.2,0.6,1.9,0.8l0.6,0.2v1c0,0.5,0.4,0.9,0.9,0.9h1.8
	c0.5,0,0.9-0.4,0.9-0.9v-1l0.6-0.2c0.7-0.2,1.3-0.5,1.9-0.8l0.6-0.3l0.7,0.7c0.4,0.4,0.9,0.4,1.3,0l1.3-1.3c0.4-0.4,0.4-0.9,0-1.3
	l-0.7-0.7l0.3-0.6c0.3-0.6,0.6-1.2,0.8-1.9l0.2-0.6h1c0.5,0,0.9-0.4,0.9-0.9v-1.8c0-0.5-0.4-0.9-0.9-0.9h-1l-0.2-0.6
	c-0.2-0.7-0.5-1.3-0.8-1.9l-0.3-0.6l0.7-0.7c0.4-0.4,0.4-0.9,0-1.3l-1.3-1.3c-0.4-0.4-0.9-0.4-1.3,0l-0.7,0.7l-0.6-0.3
	c-0.6-0.3-1.2-0.6-1.9-0.8l-0.6-0.2v-1c0-0.5-0.4-0.9-0.9-0.9h-1.8c-0.5,0-0.9,0.4-0.9,0.9v1l-0.6,0.2c-0.7,0.2-1.3,0.5-1.9,0.8
	L9.1,6.6L8.4,5.8C8,5.5,7.5,5.5,7.1,5.8L5.8,7.1C5.5,7.5,5.5,8,5.8,8.4l0.7,0.7L6.2,9.7c-0.3,0.6-0.6,1.2-0.8,1.9l-0.2,0.6h-1
	c-0.5,0-0.9,0.4-0.9,0.9v1.8c0,0.5,0.4,0.9,0.9,0.9h1l0.2,0.6c0.2,0.7,0.5,1.3,0.8,1.9l0.3,0.6l-0.7,0.7c-0.4,0.4-0.4,0.9,0,1.3
	l1.3,1.3c0.4,0.4,0.9,0.4,1.3,0L9.1,21.4z"/>
<path class="st0" d="M14,18.4c-2.4,0-4.4-2-4.4-4.4c0-2.4,2-4.4,4.4-4.4h0c2.4,0,4.4,2,4.4,4.4C18.4,16.4,16.4,18.4,14,18.4z
	 M14,11.3c-1.5,0-2.7,1.2-2.7,2.7c0,1.5,1.2,2.7,2.7,2.7s2.7-1.2,2.7-2.7C16.7,12.5,15.5,11.3,14,11.3z"/>
</svg>
