<?xml version="1.0" encoding="utf-8"?>
<!-- Generator: Adobe Illustrator 22.1.0, SVG Export Plug-In . SVG Version: 6.00 Build 0)  -->
<svg version="1.1" id="Layer_1" xmlns="http://www.w3.org/2000/svg" xmlns:xlink="http://www.w3.org/1999/xlink" x="0px" y="0px"
	 viewBox="0 0 20 20" style="enable-background:new 0 0 20 20;" xml:space="preserve">
<style type="text/css">
	.st0{fill:#FFFFFF;}
</style>
<g>
	<path class="st0" d="M10,0C4.5,0,0,4.5,0,10c0,5.5,4.5,10,10,10c5.5,0,10-4.5,10-10C20,4.5,15.5,0,10,0z M10.1,18.3
		C10,18.3,10,18.3,10.1,18.3L10.1,18.3c-4.6,0-8.4-3.7-8.4-8.3c0,0,0,0,0-0.1c0-4.6,3.7-8.3,8.2-8.3c0,0,0.1,0,0.1,0
		c4.6,0,8.3,3.7,8.3,8.3c0,0,0,0,0,0C18.4,14.6,14.7,18.3,10.1,18.3z"/>
	<path class="st0" d="M10,14.4c0.5,0,0.8-0.4,0.8-0.9v-2.6h2.8c0.5,0,0.9-0.3,0.9-0.8c0-0.5-0.3-0.8-0.8-0.8c0,0-0.1,0-0.1,0h-2.8
		V6.4c0.1-0.4-0.2-0.9-0.7-0.9c0,0-0.1,0-0.1,0c-0.5,0-0.8,0.4-0.8,0.9v2.8H6.4C5.9,9.1,5.5,9.4,5.4,9.9c0,0,0,0.1,0,0.1
		c0,0.5,0.4,0.8,0.9,0.8h2.8v2.6C9.2,14,9.5,14.4,10,14.4z"/>
</g>
</svg>
