<?xml version="1.0" encoding="utf-8"?>
<!-- Generator: Adobe Illustrator 22.1.0, SVG Export Plug-In . SVG Version: 6.00 Build 0)  -->
<svg version="1.1" id="Layer_1" xmlns="http://www.w3.org/2000/svg" xmlns:xlink="http://www.w3.org/1999/xlink" x="0px" y="0px"
	 viewBox="0 0 28 28" style="enable-background:new 0 0 28 28;" xml:space="preserve">
<style type="text/css">
	.st0{fill:#8895A8;}
</style>
<path class="st0" d="M27.8,13.3l-1.4-3.4C26,8.7,24.9,8,23.6,8H21V4c0-2.2-1.8-4-4-4H4C1.8,0,0,1.8,0,4v17c0,1.7,1.3,3,3,3
	c0,2.2,1.8,4,4,4s4-1.8,4-4h6c0,2.2,1.8,4,4,4s4-1.8,4-4c1.7,0,3-1.3,3-3v-6.6C28,14,27.9,13.6,27.8,13.3z M2,4c0-1.1,0.9-2,2-2h13
	c1.1,0,2,0.9,2,2v10c0,1.1-0.9,2-2,2H2V4z M7,26c-1.1,0-2-0.9-2-2s0.9-2,2-2s2,0.9,2,2S8.1,26,7,26z M21,26c-1.1,0-2-0.9-2-2
	s0.9-2,2-2s2,0.9,2,2S22.1,26,21,26z M26,21c0,0.6-0.4,1-1,1h-0.6c-0.7-1.2-2-2-3.4-2s-2.8,0.8-3.4,2h-7.1c-0.7-1.2-2-2-3.4-2
	s-2.7,0.8-3.4,2H3c-0.6,0-1-0.4-1-1v-3h15c2.2,0,4-1.8,4-4v-4h2.6c0.4,0,0.8,0.2,0.9,0.6l1.4,3.4c0,0.1,0.1,0.2,0.1,0.4V21z"/>
</svg>
