<svg xmlns="http://www.w3.org/2000/svg" width="357" height="100"><defs><style>.b{fill:#fff}</style></defs><path fill="transparent" d="M0 0h357v100H0z"/><path class="b" d="M341.764 34.326a4.974 4.974 0 104.982 4.968 4.981 4.981 0 00-4.982-4.968zm0 9.093a4.133 4.133 0 114.111-4.125 4.111 4.111 0 01-4.111 4.125z"/><path class="b" d="M343.75 37.92c0-.913-.716-1.67-2.049-1.67a3.178 3.178 0 00-1.474.322v5.5h.926v-2.455h.126l1.643 2.455h1.149l-1.8-2.538a1.609 1.609 0 001.479-1.614zm-2.6 1.067v-1.895a1.54 1.54 0 01.476-.071c.534 0 1.165.156 1.165.913 0 .8-.5 1.053-1.29 1.053zM287.063 39.081a8.311 8.311 0 00-7.188 3.593h-.087V25.932h-7.976v36.377h7.976V50.783c0-2.631 1.007-5.348 4.164-5.348 3.2 0 3.593 2.717 3.593 5.348v11.526h7.977V48.548c-.001-5.699-2.763-9.467-8.459-9.467zM303.325 26.722a4.471 4.471 0 104.471 4.471 4.489 4.489 0 00-4.471-4.471zM299.337 39.826h7.977v22.483h-7.977zM326.363 39.081a7.983 7.983 0 00-6.792 3.287h-.09v-2.542h-7.977v33.7h7.977V60.162a9.2 9.2 0 006.969 2.892c6.661 0 11.264-5.434 11.264-11.92.001-6.443-4.646-12.053-11.351-12.053zm-2.016 17.048a4.806 4.806 0 01-5.126-5.04 5.128 5.128 0 0110.255 0 4.807 4.807 0 01-5.129 5.04zM260.589 42.133l-2.193-.657c-1.49-.483-3.816-1.229-3.816-3.158 0-1.843 2.107-2.763 3.685-2.763a9.04 9.04 0 015.7 2.193l3.42-6.667a22.6 22.6 0 00-10.351-2.719c-6.622 0-11.4 4.385-11.4 11.1 0 6.4 3.552 7.807 8.946 9.342 1.842.526 5.22 1.36 5.22 3.772 0 2.324-2.149 3.333-4.168 3.333-2.938 0-5.482-1.537-7.631-3.422l-3.684 6.931a20.4 20.4 0 0011.622 3.773 14.513 14.513 0 009.388-3.116c2.631-2.236 3.42-5.614 3.42-8.9 0-5.358-3.553-7.683-8.158-9.042zM167.15 39.081a8.585 8.585 0 00-7.626 4.294 8.233 8.233 0 00-7.67-4.294 8.324 8.324 0 00-7.1 3.549h-.089v-2.8h-7.976v22.483h7.976V51.571c0-2.5 0-6.311 3.551-6.311s3.549 3.813 3.549 6.311v10.738h7.977V51.571c0-2.673.133-6.135 3.813-6.135 3.376 0 3.287 3.813 3.287 6.135v10.738h7.976V47.978c.001-5.171-1.974-8.897-7.668-8.897zM194.928 42.018a9.175 9.175 0 00-6.969-2.937c-6.661 0-11.263 5.523-11.263 11.964s4.689 12.009 11.352 12.009c2.629 0 5.39-1.007 6.792-3.243h.089v2.5h7.976V39.826h-7.976zm-4.866 14.112a4.806 4.806 0 01-5.126-5.04 5.127 5.127 0 0110.254 0 4.806 4.806 0 01-5.129 5.039zM214.797 43.508h-.088v-3.682h-7.977v22.483h7.977v-9.072c0-3.857 1.1-6.792 5.523-6.792a6.471 6.471 0 013.374.743V39.52h-1.533a7.811 7.811 0 00-7.276 3.988zM237.247 33.076h-7.977v6.749h-2.586v6.574h2.586v15.909h7.977V46.399h4.514v-6.574h-4.514zM125.448 42.133l-2.191-.657c-1.492-.483-3.817-1.229-3.817-3.158 0-1.843 2.107-2.763 3.685-2.763a9.031 9.031 0 015.7 2.193l3.422-6.667a22.6 22.6 0 00-10.351-2.719c-6.623 0-11.4 4.385-11.4 11.1 0 6.4 3.553 7.807 8.947 9.342 1.843.526 5.22 1.36 5.22 3.772 0 2.324-2.149 3.333-4.167 3.333-2.939 0-5.483-1.537-7.632-3.422l-3.684 6.931a20.4 20.4 0 0011.622 3.773 14.507 14.507 0 009.386-3.116c2.633-2.236 3.423-5.614 3.423-8.9-.003-5.358-3.556-7.683-8.163-9.042z"/><g><path class="b" d="M50.308 61.795L31.364 50.414 10.001 63.246l40.308 24.216 40.307-24.215-21.361-12.833zM50.308 37.666l18.947 11.382 21.36-12.834-40.307-24.215-40.307 24.215 21.362 12.832zM27.961 49.73L10.043 38.966v21.528zM90.579 60.494V38.967L72.665 49.731z"/></g></svg>