<svg xmlns="http://www.w3.org/2000/svg" width="132" height="90" viewBox="0 0 132 90"><defs><style>.a{fill:rgba(255,255,255,0);}.b,.c{fill:#fff;}.c{font-size:12px;font-family:DINNextLTArabic-Regular, DIN Next LT Arabic;}</style></defs><g transform="translate(-141 -778)"><rect class="a" width="132" height="66" transform="translate(141 802)"/><g transform="translate(-6 -11)"><path class="b" d="M20.571,24.245A6.207,6.207,0,0,0,20,26.523c0,.549.009.74.026.927,0,.013,0,.027,0,.04a7.882,7.882,0,0,0,3.015,5.2A31.889,31.889,0,0,0,27.421,35.7c.462.282.9.555,1.256.808a1.194,1.194,0,0,1,.532.993,1.25,1.25,0,0,1-1.25,1.25H20v6.252H31.253a7.536,7.536,0,0,0,6.931-4.245,6.206,6.206,0,0,0,.57-2.278c0-.549-.009-.74-.026-.927,0-.013,0-.027,0-.04a7.882,7.882,0,0,0-3.015-5.2A31.89,31.89,0,0,0,31.334,29.3c-.462-.282-.9-.555-1.256-.808a1.194,1.194,0,0,1-.532-.993,1.25,1.25,0,0,1,1.25-1.25H42.506V45.007h7.5V26.252h5V45.007h7.5V26.252h2.5c1.381,0,2.5.56,2.5,1.25v17.5h7.5V26.252c0-3.453-3.359-6.252-7.5-6.252H27.5A7.536,7.536,0,0,0,20.571,24.245Z" transform="translate(135 803.462)"/><path class="b" d="M207.253,20a7.536,7.536,0,0,0-6.931,4.244,6.208,6.208,0,0,0-.57,2.278,9.269,9.269,0,0,0,.026.927c0,.013,0,.027,0,.04a7.882,7.882,0,0,0,3.015,5.2,31.889,31.889,0,0,0,4.375,3.009c.462.282.9.555,1.256.808a1.2,1.2,0,0,1,.532.993,1.25,1.25,0,0,1-1.25,1.25H196v6.252h15a7.536,7.536,0,0,0,6.931-4.244,6.206,6.206,0,0,0,.57-2.278c0-.549-.009-.74-.026-.927,0-.013,0-.027,0-.04a7.882,7.882,0,0,0-3.015-5.2,31.892,31.892,0,0,0-4.375-3.009c-.462-.282-.9-.555-1.256-.808a1.2,1.2,0,0,1-.532-.993,1.25,1.25,0,0,1,1.25-1.25h14.593a11.24,11.24,0,0,0,15.874,15.872v2.883h7.5V20H207.253Zm23.757,6.252h10v10l-3.126-3.126L233.2,37.817l-4.064-4.064,4.689-4.689-2.813-2.813Z" transform="translate(14.015 803.462)"/><path class="b" d="M372,86.92a2.5,2.5,0,1,1,2.5,2.423A2.426,2.426,0,0,1,372,86.92m2.513-.274c.426,0,.546-.223.546-.417,0-.234-.12-.416-.546-.416h-.543v.833Zm-.543.377v1.33h-.44V85.422h1.09c.637,0,.932.274.932.807a.614.614,0,0,1-.518.625v.012c.251.04.344.262.4.666a2.677,2.677,0,0,0,.187.82H375.1a9.354,9.354,0,0,1-.2-.989.44.44,0,0,0-.5-.34h-.425Zm2.552-.1a2.022,2.022,0,1,0-2.022,2.031,1.963,1.963,0,0,0,2.022-2.031" transform="translate(-106.969 759.126)"/><path class="b" d="M196,127.887V116h6.8v.887h-5.679v4.383h5.439v.887h-5.439V127h5.932v.888H196Z" transform="translate(14.015 737.471)"/><path class="b" d="M221.163,135.76l3.316-4.269-3.145-4.038h1.275l2.568,3.3,2.516-3.3h1.275l-3.2,4.038,3.331,4.269h-1.291l-2.755-3.532-2.618,3.532Z" transform="translate(-3.282 729.598)"/><path class="b" d="M251.071,138.445h-1.038V129.5c0-.821,0-1.657-.052-2.48H251l.034,1.248a3.006,3.006,0,0,1,2.771-1.445c2.651,0,3.789,2.117,3.789,4.348s-1.138,4.351-3.789,4.351a3.035,3.035,0,0,1-2.737-1.4Zm5.422-7.272c0-1.772-.767-3.513-2.8-3.513-1.92,0-2.618,1.527-2.618,3.513s.7,3.513,2.618,3.513C255.728,134.686,256.493,132.947,256.493,131.173Z" transform="translate(-23.092 730.03)"/><path class="b" d="M283.921,127.791c-1.717,0-2.314,1.4-2.314,2.84v4.7h-1.038v-5.863c0-.8-.016-1.622-.05-2.444h1.023l.066,1.2a2.616,2.616,0,0,1,2.5-1.395,4.435,4.435,0,0,1,.476.033v1A4.184,4.184,0,0,0,283.921,127.791Z" transform="translate(-44.084 730.03)"/><path class="b" d="M295.149,131.354c0,1.87.917,3.413,2.8,3.413a2.347,2.347,0,0,0,2.4-1.87h.986a3.238,3.238,0,0,1-3.52,2.628c-2.618,0-3.775-1.872-3.775-4.2,0-2.38,1.207-4.5,3.91-4.5,2.737,0,3.468,2.313,3.468,4.529h-6.27Zm.032-.754h5.134c0-1.626-.8-3.02-2.43-3.02C296.406,127.579,295.384,128.661,295.181,130.6Z" transform="translate(-53.379 730.03)"/><path class="b" d="M323.8,135.524c-1.767,0-3.092-.806-3.092-2.628h1.038c0,1.247.849,1.87,2.108,1.87,1.173,0,2.09-.542,2.09-1.655,0-1-1.07-1.266-2.192-1.577-1.359-.377-2.839-.789-2.839-2.4,0-1.788,1.546-2.313,2.992-2.313,1.664,0,2.906.622,2.956,2.346h-1.038c-.05-.983-.781-1.541-1.887-1.541-.867,0-1.92.327-1.92,1.41,0,.987,1.054,1.266,2.175,1.56,1.362.36,2.856.754,2.856,2.364,0,1.87-1.5,2.561-3.249,2.561Z" transform="translate(-71.709 730.03)"/><path class="b" d="M346.8,135.524c-1.769,0-3.094-.806-3.094-2.628h1.038c0,1.247.849,1.87,2.109,1.87,1.173,0,2.09-.542,2.09-1.655,0-1-1.072-1.266-2.193-1.577-1.359-.377-2.837-.789-2.837-2.4,0-1.788,1.546-2.313,2.992-2.313,1.664,0,2.906.622,2.956,2.346h-1.038c-.05-.983-.781-1.541-1.887-1.541-.867,0-1.92.327-1.92,1.41,0,.987,1.054,1.266,2.177,1.56,1.36.36,2.856.754,2.856,2.364,0,1.87-1.5,2.561-3.25,2.561Z" transform="translate(-87.519 730.03)"/></g><text class="c" transform="translate(177 792)"><tspan x="0" y="0">Powered by</tspan></text></g></svg>