<?xml version="1.0" encoding="utf-8"?>
<!-- Generator: Adobe Illustrator 22.1.0, SVG Export Plug-In . SVG Version: 6.00 Build 0)  -->
<svg version="1.1" id="Layer_1" fill="none" xmlns="http://www.w3.org/2000/svg" xmlns:xlink="http://www.w3.org/1999/xlink" x="0px" y="0px"
	 viewBox="0 0 132 90" style="enable-background:new 0 0 132 90;" xml:space="preserve">
<style type="text/css">
	.st0{fill:#FFFFFF;}
	.st1{enable-background:new    ;}
</style>
<rect y="24" width="132" height="66"/>
<path class="st0" d="M8.6,38.7C8.2,39.4,8,40.2,8,41c0,0.5,0,0.7,0,0.9c0,0,0,0,0,0c0.3,2.1,1.4,3.9,3,5.2c1.4,1.1,2.8,2.1,4.4,3
	c0.5,0.3,0.9,0.6,1.3,0.8c0.3,0.2,0.5,0.6,0.5,1c0,0.7-0.6,1.3-1.3,1.3H8v6.3h11.3c2.9,0.1,5.6-1.6,6.9-4.2c0.3-0.7,0.5-1.5,0.6-2.3
	c0-0.5,0-0.7,0-0.9c0,0,0,0,0,0c-0.3-2.1-1.4-3.9-3-5.2c-1.4-1.1-2.8-2.1-4.4-3c-0.5-0.3-0.9-0.6-1.3-0.8c-0.3-0.2-0.5-0.6-0.5-1
	c0-0.7,0.6-1.3,1.3-1.3h11.7v18.8H38V40.7h5v18.8h7.5V40.7H53c1.4,0,2.5,0.6,2.5,1.3v17.5H63V40.7c0-3.5-3.4-6.3-7.5-6.3h-40
	C12.6,34.4,9.9,36.1,8.6,38.7z"/>
<path class="st0" d="M74.3,34.5c-2.9-0.1-5.6,1.6-6.9,4.2c-0.3,0.7-0.5,1.5-0.6,2.3c0,0.3,0,0.6,0,0.9c0,0,0,0,0,0
	c0.3,2.1,1.4,3.9,3,5.2c1.4,1.1,2.8,2.1,4.4,3c0.5,0.3,0.9,0.6,1.3,0.8c0.3,0.2,0.5,0.6,0.5,1c0,0.7-0.6,1.3-1.3,1.3H63v6.3h15
	c2.9,0.1,5.6-1.6,6.9-4.2c0.3-0.7,0.5-1.5,0.6-2.3c0-0.5,0-0.7,0-0.9c0,0,0,0,0,0c-0.3-2.1-1.4-3.9-3-5.2c-1.4-1.1-2.8-2.1-4.4-3
	c-0.5-0.3-0.9-0.6-1.3-0.8c-0.3-0.2-0.5-0.6-0.5-1c0-0.7,0.6-1.3,1.3-1.3h14.6C88,45.3,88.4,52.4,93,56.6c4.3,3.8,10.8,3.8,15,0v2.9
	h7.5v-25H74.3z M98,40.7h10v10l-3.1-3.1l-4.7,4.7l-4.1-4.1l4.7-4.7L98,40.7L98,40.7z"/>
<path class="st0" d="M118,57c0-1.4,1-2.5,2.4-2.6c1.4,0,2.5,1,2.6,2.4c0,1.4-1,2.5-2.4,2.6c0,0-0.1,0-0.1,0
	C119.2,59.5,118.1,58.5,118,57C118,57.1,118,57.1,118,57 M120.5,56.8c0.4,0,0.5-0.2,0.5-0.4c0-0.2-0.1-0.4-0.5-0.4H120v0.8H120.5z
	 M120,57.1v1.3h-0.4v-2.9h1.1c0.6,0,0.9,0.3,0.9,0.8c0,0.3-0.2,0.6-0.5,0.6v0c0.3,0,0.3,0.3,0.4,0.7c0,0.3,0.1,0.6,0.2,0.8h-0.5
	c-0.1-0.3-0.2-0.7-0.2-1c-0.1-0.2-0.3-0.4-0.5-0.3L120,57.1L120,57.1z M122.6,57c0-1.1-0.9-2-2-2c-1.1,0-2,0.9-2,2c0,1.1,0.9,2,2,2
	c1.1,0,2-0.8,2-1.9C122.6,57.1,122.6,57.1,122.6,57"/>
<path class="st0" d="M63,76.4V64.5h6.8v0.9h-5.7v4.4h5.4v0.9h-5.4v4.8h5.9v0.9L63,76.4L63,76.4z"/>
<path class="st0" d="M70.9,76.4l3.3-4.3l-3.1-4h1.3l2.6,3.3l2.5-3.3h1.3l-3.2,4l3.3,4.3h-1.3l-2.8-3.5l-2.6,3.5L70.9,76.4z"/>
<path class="st0" d="M81,79.5h-1v-8.9c0-0.8,0-1.7-0.1-2.5h1l0,1.2c0.6-1,1.6-1.5,2.8-1.4c2.7,0,3.8,2.1,3.8,4.3s-1.1,4.4-3.8,4.4
	c-1.1,0.1-2.1-0.5-2.7-1.4L81,79.5z M86.4,72.2c0-1.8-0.8-3.5-2.8-3.5c-1.9,0-2.6,1.5-2.6,3.5s0.7,3.5,2.6,3.5
	C85.6,75.7,86.4,74,86.4,72.2z"/>
<path class="st0" d="M92.8,68.8c-1.7,0-2.3,1.4-2.3,2.8v4.7h-1v-5.9c0-0.8,0-1.6,0-2.4h1l0.1,1.2c0.5-0.9,1.5-1.5,2.5-1.4
	c0.2,0,0.3,0,0.5,0v1C93.3,68.9,93.1,68.8,92.8,68.8z"/>
<path class="st0" d="M94.8,72.4c0,1.9,0.9,3.4,2.8,3.4c1.2,0,2.2-0.7,2.4-1.9h1c-0.3,1.7-1.8,2.8-3.5,2.6c-2.6,0-3.8-1.9-3.8-4.2
	c0-2.4,1.2-4.5,3.9-4.5c2.7,0,3.5,2.3,3.5,4.5L94.8,72.4L94.8,72.4z M94.8,71.6h5.1c0-1.6-0.8-3-2.4-3C96,68.6,95,69.7,94.8,71.6z"
	/>
<path class="st0" d="M105.1,76.6c-1.8,0-3.1-0.8-3.1-2.6h1c0,1.2,0.8,1.9,2.1,1.9c1.2,0,2.1-0.5,2.1-1.7c0-1-1.1-1.3-2.2-1.6
	c-1.4-0.4-2.8-0.8-2.8-2.4c0-1.8,1.5-2.3,3-2.3c1.7,0,2.9,0.6,3,2.3h-1c0-1-0.8-1.5-1.9-1.5c-0.9,0-1.9,0.3-1.9,1.4
	c0,1,1.1,1.3,2.2,1.6c1.4,0.4,2.9,0.8,2.9,2.4C108.3,75.9,106.8,76.6,105.1,76.6L105.1,76.6z"/>
<path class="st0" d="M112.3,76.6c-1.8,0-3.1-0.8-3.1-2.6h1c0,1.2,0.8,1.9,2.1,1.9c1.2,0,2.1-0.5,2.1-1.7c0-1-1.1-1.3-2.2-1.6
	c-1.4-0.4-2.8-0.8-2.8-2.4c0-1.8,1.5-2.3,3-2.3c1.7,0,2.9,0.6,3,2.3h-1c0-1-0.8-1.5-1.9-1.5c-0.9,0-1.9,0.3-1.9,1.4
	c0,1,1.1,1.3,2.2,1.6c1.4,0.4,2.9,0.8,2.9,2.4C115.5,75.9,114,76.6,112.3,76.6L112.3,76.6z"/>
<g class="st1">
	<path class="st0" d="M37.1,14C37,14,37,14,37,13.9V6c0-0.1,0-0.1,0.1-0.1H40c0.4,0,0.7,0.1,1.1,0.2c0.3,0.1,0.6,0.3,0.8,0.5
		c0.2,0.2,0.4,0.5,0.5,0.8c0.1,0.3,0.2,0.6,0.2,1s-0.1,0.7-0.2,1c-0.1,0.3-0.3,0.6-0.5,0.8c-0.2,0.2-0.5,0.4-0.8,0.5
		c-0.3,0.1-0.7,0.2-1.1,0.2h-1.9c0,0-0.1,0-0.1,0.1v3.1c0,0.1,0,0.1-0.1,0.1H37.1z M40,9.7c0.5,0,0.9-0.1,1.2-0.4
		c0.3-0.3,0.4-0.6,0.4-1.1s-0.1-0.8-0.4-1.1C40.9,7,40.5,6.8,40,6.8h-1.8c0,0-0.1,0-0.1,0.1v2.7c0,0,0,0.1,0.1,0.1H40z"/>
	<path class="st0" d="M46.1,14.1c-0.6,0-1-0.1-1.4-0.4c-0.4-0.3-0.7-0.7-0.8-1.1c-0.1-0.2-0.1-0.4-0.1-0.6c0-0.2,0-0.5,0-0.8
		s0-0.6,0-0.8c0-0.2,0.1-0.4,0.1-0.6c0.2-0.5,0.4-0.9,0.8-1.1c0.4-0.3,0.9-0.4,1.4-0.4c0.6,0,1,0.1,1.4,0.4c0.4,0.3,0.7,0.6,0.8,1.1
		c0.1,0.2,0.1,0.4,0.1,0.6c0,0.2,0,0.5,0,0.8s0,0.6,0,0.8c0,0.2-0.1,0.4-0.1,0.6c-0.2,0.5-0.4,0.9-0.8,1.1
		C47.2,14,46.7,14.1,46.1,14.1z M46.1,13.2c0.3,0,0.6-0.1,0.8-0.2c0.2-0.2,0.4-0.4,0.5-0.7c0-0.2,0.1-0.3,0.1-0.5c0-0.2,0-0.4,0-0.7
		s0-0.5,0-0.7c0-0.2-0.1-0.3-0.1-0.5c-0.1-0.3-0.3-0.5-0.5-0.7c-0.2-0.2-0.5-0.2-0.8-0.2c-0.3,0-0.6,0.1-0.8,0.2
		c-0.2,0.2-0.4,0.4-0.5,0.7c0,0.2-0.1,0.3-0.1,0.5c0,0.2,0,0.4,0,0.7s0,0.5,0,0.7c0,0.2,0.1,0.3,0.1,0.5c0.1,0.3,0.3,0.5,0.5,0.7
		C45.5,13.1,45.8,13.2,46.1,13.2z"/>
	<path class="st0" d="M55.1,14C55,14,55,14,55,13.9l-1.3-4.1h0l-1.3,4.1c0,0.1-0.1,0.1-0.1,0.1h-0.7c-0.1,0-0.1,0-0.1-0.1l-1.8-5.5
		c0-0.1,0-0.1,0.1-0.1h0.8c0.1,0,0.1,0,0.2,0.1l1.3,4.2h0l1.3-4.2c0-0.1,0.1-0.1,0.1-0.1H54c0.1,0,0.1,0,0.2,0.1l1.3,4.2h0l1.2-4.2
		c0-0.1,0.1-0.1,0.2-0.1h0.8c0.1,0,0.1,0,0.1,0.1l-1.8,5.5c0,0.1-0.1,0.1-0.1,0.1H55.1z"/>
	<path class="st0" d="M61.2,14.1c-0.6,0-1.1-0.1-1.5-0.4c-0.4-0.3-0.7-0.7-0.8-1.2c-0.1-0.2-0.1-0.4-0.1-0.6c0-0.2,0-0.5,0-0.8
		s0-0.6,0-0.8c0-0.2,0.1-0.4,0.1-0.6c0.2-0.5,0.4-0.9,0.8-1.2c0.4-0.3,0.9-0.4,1.4-0.4c0.6,0,1,0.1,1.4,0.4c0.4,0.3,0.7,0.6,0.8,1.1
		c0,0.1,0.1,0.2,0.1,0.3c0,0.1,0,0.2,0.1,0.3s0,0.3,0,0.4c0,0.2,0,0.4,0,0.6c0,0.1,0,0.1-0.1,0.1h-3.6c0,0-0.1,0-0.1,0.1
		c0,0.2,0,0.3,0,0.4c0,0.1,0,0.2,0.1,0.3c0.1,0.3,0.3,0.6,0.5,0.8c0.2,0.2,0.6,0.2,0.9,0.2c0.3,0,0.6-0.1,0.9-0.2
		c0.2-0.1,0.4-0.3,0.6-0.5c0.1-0.1,0.1-0.1,0.2,0l0.5,0.4c0.1,0,0.1,0.1,0,0.2c-0.2,0.3-0.5,0.5-0.9,0.7
		C62.2,14,61.8,14.1,61.2,14.1z M62.5,10.6C62.6,10.6,62.6,10.6,62.5,10.6c0.1-0.3,0-0.5,0-0.7c-0.1-0.3-0.3-0.5-0.5-0.7
		C61.8,9.1,61.5,9,61.2,9s-0.6,0.1-0.8,0.2S60,9.6,59.9,9.9c-0.1,0.2-0.1,0.4-0.1,0.6c0,0,0,0.1,0.1,0.1H62.5z"/>
	<path class="st0" d="M65.4,14c-0.1,0-0.1,0-0.1-0.1V8.4c0-0.1,0-0.1,0.1-0.1h0.8c0.1,0,0.1,0,0.1,0.1V9h0c0.1-0.2,0.3-0.5,0.6-0.6
		c0.3-0.2,0.6-0.2,1-0.2c0.2,0,0.5,0,0.7,0.1c0.2,0.1,0.4,0.2,0.5,0.3C69,8.6,69,8.7,69,8.7l-0.4,0.6c0,0.1-0.1,0.1-0.2,0
		c-0.1-0.1-0.3-0.2-0.4-0.2c-0.1,0-0.3-0.1-0.5-0.1c-0.4,0-0.8,0.2-0.9,0.5c-0.2,0.3-0.3,0.7-0.3,1.2v3.1c0,0.1,0,0.1-0.1,0.1H65.4z
		"/>
	<path class="st0" d="M72.3,14.1c-0.6,0-1.1-0.1-1.5-0.4c-0.4-0.3-0.7-0.7-0.8-1.2c-0.1-0.2-0.1-0.4-0.1-0.6c0-0.2,0-0.5,0-0.8
		s0-0.6,0-0.8c0-0.2,0.1-0.4,0.1-0.6c0.2-0.5,0.4-0.9,0.8-1.2c0.4-0.3,0.9-0.4,1.4-0.4c0.6,0,1,0.1,1.4,0.4c0.4,0.3,0.7,0.6,0.8,1.1
		c0,0.1,0.1,0.2,0.1,0.3c0,0.1,0,0.2,0.1,0.3s0,0.3,0,0.4s0,0.4,0,0.6c0,0.1,0,0.1-0.1,0.1h-3.6c0,0-0.1,0-0.1,0.1
		c0,0.2,0,0.3,0,0.4c0,0.1,0,0.2,0.1,0.3c0.1,0.3,0.3,0.6,0.5,0.8s0.6,0.2,0.9,0.2c0.3,0,0.6-0.1,0.9-0.2c0.2-0.1,0.4-0.3,0.6-0.5
		c0.1-0.1,0.1-0.1,0.2,0l0.5,0.4c0.1,0,0.1,0.1,0,0.2c-0.2,0.3-0.5,0.5-0.9,0.7C73.3,14,72.8,14.1,72.3,14.1z M73.6,10.6
		C73.6,10.6,73.7,10.6,73.6,10.6c0.1-0.3,0-0.5,0-0.7c-0.1-0.3-0.3-0.5-0.5-0.7C72.9,9.1,72.6,9,72.3,9s-0.6,0.1-0.8,0.2
		c-0.2,0.2-0.4,0.4-0.5,0.7c-0.1,0.2-0.1,0.4-0.1,0.6c0,0,0,0.1,0.1,0.1H73.6z"/>
	<path class="st0" d="M79.9,14c-0.1,0-0.1,0-0.1-0.1v-0.6h0c-0.1,0.2-0.3,0.4-0.6,0.6c-0.3,0.2-0.6,0.2-1,0.2
		c-0.5,0-0.9-0.1-1.3-0.3c-0.3-0.2-0.6-0.6-0.7-1C76.1,12.5,76,12.3,76,12s0-0.6,0-0.9s0-0.7,0-0.9s0.1-0.5,0.2-0.7
		c0.1-0.5,0.4-0.8,0.7-1c0.3-0.2,0.8-0.3,1.3-0.3c0.4,0,0.8,0.1,1,0.2c0.3,0.1,0.5,0.3,0.6,0.6h0V6c0-0.1,0-0.1,0.1-0.1h0.8
		c0.1,0,0.1,0,0.1,0.1v7.9c0,0.1,0,0.1-0.1,0.1H79.9z M78.4,13.2c0.7,0,1.1-0.3,1.3-0.9c0-0.1,0.1-0.3,0.1-0.5c0-0.2,0-0.4,0-0.7
		s0-0.5,0-0.7c0-0.2-0.1-0.3-0.1-0.5c-0.2-0.6-0.6-0.9-1.3-0.9c-0.6,0-1.1,0.3-1.3,0.9c0,0.2-0.1,0.3-0.1,0.5c0,0.2,0,0.4,0,0.7
		c0,0.3,0,0.5,0,0.7c0,0.2,0.1,0.4,0.1,0.5C77.3,12.9,77.7,13.2,78.4,13.2z"/>
	<path class="st0" d="M85.8,14c-0.1,0-0.1,0-0.1-0.1V6c0-0.1,0-0.1,0.1-0.1h0.8c0.1,0,0.1,0,0.1,0.1v3h0c0.1-0.2,0.3-0.4,0.6-0.6
		c0.3-0.1,0.6-0.2,1-0.2c0.5,0,0.9,0.1,1.3,0.3c0.3,0.2,0.6,0.6,0.7,1c0.1,0.2,0.1,0.5,0.2,0.7c0,0.2,0,0.5,0,0.9s0,0.7,0,0.9
		c0,0.2-0.1,0.5-0.2,0.7c-0.1,0.5-0.4,0.8-0.7,1c-0.3,0.2-0.8,0.3-1.3,0.3c-0.4,0-0.8-0.1-1-0.2c-0.3-0.2-0.5-0.3-0.6-0.6h0v0.6
		c0,0.1,0,0.1-0.1,0.1H85.8z M88.1,13.2c0.6,0,1.1-0.3,1.3-0.9c0-0.2,0.1-0.3,0.1-0.5c0-0.2,0-0.4,0-0.7c0-0.3,0-0.5,0-0.7
		c0-0.2-0.1-0.4-0.1-0.5c-0.2-0.6-0.6-0.9-1.3-0.9c-0.7,0-1.1,0.3-1.3,0.9c0,0.1-0.1,0.3-0.1,0.5c0,0.2,0,0.4,0,0.7s0,0.5,0,0.7
		c0,0.2,0.1,0.3,0.1,0.5C87,12.9,87.4,13.2,88.1,13.2z"/>
	<path class="st0" d="M92.1,16.2c-0.1,0-0.1,0-0.1-0.1v-0.7c0-0.1,0-0.1,0.1-0.1h0.2c0.2,0,0.4-0.1,0.6-0.2c0.1-0.1,0.3-0.4,0.4-0.7
		l0.2-0.5l-2.1-5.5c0-0.1,0-0.1,0.1-0.1h0.8c0.1,0,0.1,0,0.1,0.1l1.5,4.2h0l1.5-4.2c0-0.1,0.1-0.1,0.1-0.1h0.8c0.1,0,0.1,0,0.1,0.1
		l-2.3,6.1c-0.1,0.3-0.3,0.6-0.4,0.8c-0.1,0.2-0.3,0.4-0.4,0.5S93.2,16,93,16.1s-0.4,0.1-0.6,0.1H92.1z"/>
</g>
</svg>
