<?xml version="1.0" encoding="utf-8"?>
<!-- Generator: Adobe Illustrator 22.1.0, SVG Export Plug-In . SVG Version: 6.00 Build 0)  -->
<svg version="1.1" id="Layer_1" xmlns="http://www.w3.org/2000/svg"  fill="none" xmlns:xlink="http://www.w3.org/1999/xlink" x="0px" y="0px"
	 viewBox="0 0 132 66" style="enable-background:new 0 0 132 66;" xml:space="preserve">
<style type="text/css">
	.st0{fill:#FFFFFF;}
</style>
<rect width="132" height="66"/>
<path class="st0" d="M8.6,14.7C8.2,15.4,8,16.2,8,17c0,0.5,0,0.7,0,0.9c0,0,0,0,0,0c0.3,2.1,1.4,3.9,3,5.2c1.4,1.1,2.8,2.1,4.4,3
	c0.5,0.3,0.9,0.6,1.3,0.8c0.3,0.2,0.5,0.6,0.5,1c0,0.7-0.6,1.3-1.3,1.3H8v6.3h11.3c2.9,0.1,5.6-1.6,6.9-4.2c0.3-0.7,0.5-1.5,0.6-2.3
	c0-0.5,0-0.7,0-0.9c0,0,0,0,0,0c-0.3-2.1-1.4-3.9-3-5.2c-1.4-1.1-2.8-2.1-4.4-3c-0.5-0.3-0.9-0.6-1.3-0.8c-0.3-0.2-0.5-0.6-0.5-1
	c0-0.7,0.6-1.3,1.3-1.3h11.7v18.8H38V16.7h5v18.8h7.5V16.7H53c1.4,0,2.5,0.6,2.5,1.3v17.5H63V16.7c0-3.5-3.4-6.3-7.5-6.3h-40
	C12.6,10.4,9.9,12.1,8.6,14.7z"/>
<path class="st0" d="M74.3,10.5c-2.9-0.1-5.6,1.6-6.9,4.2c-0.3,0.7-0.5,1.5-0.6,2.3c0,0.3,0,0.6,0,0.9c0,0,0,0,0,0
	c0.3,2.1,1.4,3.9,3,5.2c1.4,1.1,2.8,2.1,4.4,3c0.5,0.3,0.9,0.6,1.3,0.8c0.3,0.2,0.5,0.6,0.5,1c0,0.7-0.6,1.3-1.3,1.3H63v6.3h15
	c2.9,0.1,5.6-1.6,6.9-4.2c0.3-0.7,0.5-1.5,0.6-2.3c0-0.5,0-0.7,0-0.9c0,0,0,0,0,0c-0.3-2.1-1.4-3.9-3-5.2c-1.4-1.1-2.8-2.1-4.4-3
	c-0.5-0.3-0.9-0.6-1.3-0.8c-0.3-0.2-0.5-0.6-0.5-1c0-0.7,0.6-1.3,1.3-1.3h14.6C88,21.3,88.4,28.4,93,32.6c4.3,3.8,10.8,3.8,15,0v2.9
	h7.5v-25H74.3z M98,16.7h10v10l-3.1-3.1l-4.7,4.7l-4.1-4.1l4.7-4.7L98,16.7L98,16.7z"/>
<path class="st0" d="M118,33c0-1.4,1-2.5,2.4-2.6c1.4,0,2.5,1,2.6,2.4c0,1.4-1,2.5-2.4,2.6c0,0-0.1,0-0.1,0
	C119.2,35.5,118.1,34.5,118,33C118,33.1,118,33.1,118,33 M120.5,32.8c0.4,0,0.5-0.2,0.5-0.4c0-0.2-0.1-0.4-0.5-0.4H120v0.8H120.5z
	 M120,33.1v1.3h-0.4v-2.9h1.1c0.6,0,0.9,0.3,0.9,0.8c0,0.3-0.2,0.6-0.5,0.6v0c0.3,0,0.3,0.3,0.4,0.7c0,0.3,0.1,0.6,0.2,0.8h-0.5
	c-0.1-0.3-0.2-0.7-0.2-1c-0.1-0.2-0.3-0.4-0.5-0.3L120,33.1L120,33.1z M122.6,33c0-1.1-0.9-2-2-2c-1.1,0-2,0.9-2,2c0,1.1,0.9,2,2,2
	c1.1,0,2-0.8,2-1.9C122.6,33.1,122.6,33.1,122.6,33"/>
<path class="st0" d="M63,52.4V40.5h6.8v0.9h-5.7v4.4h5.4v0.9h-5.4v4.8h5.9v0.9L63,52.4L63,52.4z"/>
<path class="st0" d="M70.9,52.4l3.3-4.3l-3.1-4h1.3l2.6,3.3l2.5-3.3h1.3l-3.2,4l3.3,4.3h-1.3l-2.8-3.5l-2.6,3.5L70.9,52.4z"/>
<path class="st0" d="M81,55.5h-1v-8.9c0-0.8,0-1.7-0.1-2.5h1l0,1.2c0.6-1,1.6-1.5,2.8-1.4c2.7,0,3.8,2.1,3.8,4.3s-1.1,4.4-3.8,4.4
	c-1.1,0.1-2.1-0.5-2.7-1.4L81,55.5z M86.4,48.2c0-1.8-0.8-3.5-2.8-3.5c-1.9,0-2.6,1.5-2.6,3.5s0.7,3.5,2.6,3.5
	C85.6,51.7,86.4,50,86.4,48.2z"/>
<path class="st0" d="M92.8,44.8c-1.7,0-2.3,1.4-2.3,2.8v4.7h-1v-5.9c0-0.8,0-1.6,0-2.4h1l0.1,1.2c0.5-0.9,1.5-1.5,2.5-1.4
	c0.2,0,0.3,0,0.5,0v1C93.3,44.9,93.1,44.8,92.8,44.8z"/>
<path class="st0" d="M94.8,48.4c0,1.9,0.9,3.4,2.8,3.4c1.2,0,2.2-0.7,2.4-1.9h1c-0.3,1.7-1.8,2.8-3.5,2.6c-2.6,0-3.8-1.9-3.8-4.2
	c0-2.4,1.2-4.5,3.9-4.5c2.7,0,3.5,2.3,3.5,4.5L94.8,48.4L94.8,48.4z M94.8,47.6h5.1c0-1.6-0.8-3-2.4-3C96,44.6,95,45.7,94.8,47.6z"
	/>
<path class="st0" d="M105.1,52.6c-1.8,0-3.1-0.8-3.1-2.6h1c0,1.2,0.8,1.9,2.1,1.9c1.2,0,2.1-0.5,2.1-1.7c0-1-1.1-1.3-2.2-1.6
	c-1.4-0.4-2.8-0.8-2.8-2.4c0-1.8,1.5-2.3,3-2.3c1.7,0,2.9,0.6,3,2.3h-1c0-1-0.8-1.5-1.9-1.5c-0.9,0-1.9,0.3-1.9,1.4
	c0,1,1.1,1.3,2.2,1.6c1.4,0.4,2.9,0.8,2.9,2.4C108.3,51.9,106.8,52.6,105.1,52.6L105.1,52.6z"/>
<path class="st0" d="M112.3,52.6c-1.8,0-3.1-0.8-3.1-2.6h1c0,1.2,0.8,1.9,2.1,1.9c1.2,0,2.1-0.5,2.1-1.7c0-1-1.1-1.3-2.2-1.6
	c-1.4-0.4-2.8-0.8-2.8-2.4c0-1.8,1.5-2.3,3-2.3c1.7,0,2.9,0.6,3,2.3h-1c0-1-0.8-1.5-1.9-1.5c-0.9,0-1.9,0.3-1.9,1.4
	c0,1,1.1,1.3,2.2,1.6c1.4,0.4,2.9,0.8,2.9,2.4C115.5,51.9,114,52.6,112.3,52.6L112.3,52.6z"/>
</svg>
