<svg xmlns="http://www.w3.org/2000/svg" width="357" height="100" viewBox="0 0 357 100"><defs><style>.a{fill:rgba(255,255,255,0);}.b{fill:#fff;}</style></defs><g transform="translate(-29 -398)"><rect class="a" width="357" height="100" transform="translate(29 398)"/><g transform="translate(1831.543 -4023.779)"><path class="b" d="M2468.133,288.372a4.974,4.974,0,1,0,4.982,4.968A4.981,4.981,0,0,0,2468.133,288.372Zm0,9.093a4.133,4.133,0,1,1,4.111-4.125A4.111,4.111,0,0,1,2468.133,297.465Z" transform="translate(-3928.912 4167.733)"/><g transform="translate(-1792.542 4433.779)"><g transform="translate(99.177 13.932)"><path class="b" d="M2468.462,291.041c0-.913-.716-1.67-2.049-1.67a3.178,3.178,0,0,0-1.474.322v5.5h.926v-2.455h.126l1.643,2.455h1.149l-1.8-2.538A1.609,1.609,0,0,0,2468.462,291.041Zm-2.6,1.067v-1.895a1.54,1.54,0,0,1,.476-.071c.534,0,1.165.156,1.165.913,0,.8-.5,1.053-1.29,1.053Z" transform="translate(-2233.89 -279.053)"/><path class="b" d="M2444.664,297.162a8.311,8.311,0,0,0-7.188,3.593h-.087V284.013h-7.976V320.39h7.976V308.864c0-2.631,1.007-5.348,4.164-5.348,3.2,0,3.593,2.717,3.593,5.348V320.39h7.977V306.629C2453.122,300.93,2450.36,297.162,2444.664,297.162Z" transform="translate(-2266.779 -284.013)"/><path class="b" d="M2447.926,284.423a4.471,4.471,0,1,0,4.471,4.471A4.489,4.489,0,0,0,2447.926,284.423Z" transform="translate(-2253.779 -283.633)"/><rect class="b" width="7.977" height="22.483" transform="translate(190.159 13.894)"/><path class="b" d="M2464.882,290.841a7.983,7.983,0,0,0-6.792,3.287H2458v-2.542h-7.977v33.7H2458V311.922a9.2,9.2,0,0,0,6.969,2.892c6.661,0,11.264-5.434,11.264-11.92C2476.234,296.451,2471.587,290.841,2464.882,290.841Zm-2.016,17.048a4.806,4.806,0,0,1-5.126-5.04,5.128,5.128,0,0,1,10.255,0A4.807,4.807,0,0,1,2462.866,307.889Z" transform="translate(-2247.697 -277.692)"/><path class="b" d="M2431.407,299.046l-2.193-.657c-1.49-.483-3.816-1.229-3.816-3.158,0-1.843,2.107-2.763,3.685-2.763a9.04,9.04,0,0,1,5.7,2.193l3.42-6.667a22.6,22.6,0,0,0-10.351-2.719c-6.622,0-11.4,4.385-11.4,11.1,0,6.4,3.552,7.807,8.946,9.342,1.842.526,5.22,1.36,5.22,3.772,0,2.324-2.149,3.333-4.168,3.333-2.938,0-5.482-1.537-7.631-3.422l-3.684,6.931a20.4,20.4,0,0,0,11.622,3.773,14.513,14.513,0,0,0,9.388-3.116c2.631-2.236,3.42-5.614,3.42-8.9C2439.565,302.73,2436.012,300.405,2431.407,299.046Z" transform="translate(-2279.996 -282.845)"/><path class="b" d="M2389.706,290.841a8.585,8.585,0,0,0-7.626,4.294,8.233,8.233,0,0,0-7.67-4.294,8.324,8.324,0,0,0-7.1,3.549h-.089v-2.8h-7.976v22.483h7.976V303.331c0-2.5,0-6.311,3.551-6.311s3.549,3.813,3.549,6.311v10.738h7.977V303.331c0-2.673.133-6.135,3.813-6.135,3.376,0,3.287,3.813,3.287,6.135v10.738h7.976V299.738C2397.375,294.567,2395.4,290.841,2389.706,290.841Z" transform="translate(-2331.734 -277.692)"/><path class="b" d="M2398.253,293.778a9.175,9.175,0,0,0-6.969-2.937c-6.661,0-11.263,5.523-11.263,11.964s4.689,12.009,11.352,12.009c2.629,0,5.39-1.007,6.792-3.243h.089v2.5h7.976V291.586h-7.976Zm-4.866,14.112a4.806,4.806,0,0,1-5.126-5.04,5.127,5.127,0,0,1,10.254,0A4.806,4.806,0,0,1,2393.386,307.889Z" transform="translate(-2312.503 -277.692)"/><path class="b" d="M2403.682,295.057h-.088v-3.682h-7.977v22.483h7.977v-9.072c0-3.857,1.1-6.792,5.523-6.792a6.471,6.471,0,0,1,3.374.743v-7.668h-1.533A7.811,7.811,0,0,0,2403.682,295.057Z" transform="translate(-2298.063 -277.481)"/><path class="b" d="M2416.541,287.723h-7.977v6.749h-2.586v6.574h2.586v15.909h7.977V301.046h4.514v-6.574h-4.514Z" transform="translate(-2288.472 -280.579)"/><path class="b" d="M2361.229,299.046l-2.191-.657c-1.492-.483-3.817-1.229-3.817-3.158,0-1.843,2.107-2.763,3.685-2.763a9.031,9.031,0,0,1,5.7,2.193l3.422-6.667a22.6,22.6,0,0,0-10.351-2.719c-6.623,0-11.4,4.385-11.4,11.1,0,6.4,3.553,7.807,8.947,9.342,1.843.526,5.22,1.36,5.22,3.772,0,2.324-2.149,3.333-4.167,3.333-2.939,0-5.483-1.537-7.632-3.422l-3.684,6.931a20.4,20.4,0,0,0,11.622,3.773,14.507,14.507,0,0,0,9.386-3.116c2.633-2.236,3.423-5.614,3.423-8.9C2369.389,302.73,2365.836,300.405,2361.229,299.046Z" transform="translate(-2344.959 -282.845)"/></g><g transform="translate(0 0)"><path class="b" d="M2333.765,308.108l-18.944-11.381-21.363,12.832,40.308,24.216,40.307-24.215-21.361-12.833Z" transform="translate(-2293.458 -258.313)"/><path class="b" d="M2333.765,302.445l18.947,11.382,21.36-12.834-40.307-24.215-40.307,24.215,21.362,12.832Z" transform="translate(-2293.458 -276.779)"/><path class="b" d="M2311.4,301.546l-17.918-10.764v21.528Z" transform="translate(-2293.44 -263.816)"/><path class="b" d="M2343.914,312.309V290.782L2326,301.546Z" transform="translate(-2263.336 -263.815)"/></g></g></g></g></svg>