<?xml version="1.0" encoding="utf-8"?>
<!-- Generator: Adobe Illustrator 22.1.0, SVG Export Plug-In . SVG Version: 6.00 Build 0)  -->
<svg version="1.1" id="Layer_1" xmlns="http://www.w3.org/2000/svg" xmlns:xlink="http://www.w3.org/1999/xlink" x="0px" y="0px"
	 viewBox="0 0 24.9 24.4" style="enable-background:new 0 0 24.9 24.4;" xml:space="preserve">
<style type="text/css">
	.st0{fill:#FFFFFF;}
</style>
<g>
	<path class="st0" d="M22.6,10.6V7.9c0-1.6-1.1-3-2.6-3.4V3.7c0-2-1.6-3.6-3.6-3.6H3.4c-1.8,0-3.2,1.4-3.2,3.2v17.5
		c0,2,1.6,3.6,3.6,3.6h15.3c2,0,3.6-1.6,3.6-3.6V19c1.2-0.4,2.1-1.5,2.1-2.9v-2.7C24.7,12.1,23.8,11,22.6,10.6z M3.4,2.1h13.2
		c0.9,0,1.6,0.7,1.6,1.6v0.7H3.4c-0.7,0-1.2-0.5-1.2-1.1C2.2,2.6,2.7,2.1,3.4,2.1z M19.1,22.2H3.8c-0.9,0-1.6-0.7-1.6-1.6V6.1
		c0.4,0.1,0.7,0.2,1.2,0.2h15.7c0.9,0,1.6,0.7,1.6,1.6v2.6h-5.3c-1.7,0-3,1.3-3,3v2.7c0,1.7,1.3,3,3,3h5.3v1.6
		C20.6,21.5,20,22.2,19.1,22.2z M22.7,16.1c0,0.6-0.4,1-1,1h-6.5c-0.6,0-1-0.4-1-1v-2.7c0-0.6,0.4-1,1-1h6.5c0.6,0,1,0.4,1,1V16.1z"
		/>
	<path class="st0" d="M16.6,12.8c-0.5,0-1,0.4-1,1c0,0.5,0.4,1,1,1c0.5,0,1-0.4,1-1S17.2,12.8,16.6,12.8z"/>
</g>
</svg>
