<svg enable-background="new 0 0 33 33" viewBox="0 0 33 33" fill="none" xmlns="http://www.w3.org/2000/svg"><path d="m0 0h33v33h-33z"/><g fill="#c1c9d3" transform="translate(352.574 344)"><path d="m-336.1-325.2c-2 0-3.7-1.5-4-3.5l-.4-3.4c-.2-1.2.2-2.4.9-3.3s1.8-1.6 3-1.7h.6c2.5 0 4.5 2 4.5 4.5v.6l-.4 3.4c-.5 1.9-2.2 3.4-4.2 3.4zm0-9.9c-.1 0-.2 0-.3 0-.7.1-1.2.4-1.6.9s-.6 1.2-.5 1.8l.4 3.4c.1 1 1 1.7 2 1.7s1.9-.8 2-1.7l.4-3.4c0-.1 0-.2 0-.3.1-1.3-1-2.4-2.4-2.4z"/><path d="m-329.8-317.9h-12.6c-.1 0-.3 0-.4 0-1.6-.2-2.8-1.7-2.6-3.3l.2-1.8c.1-.9.8-1.7 1.7-1.9l3.1-.8c.5-.1 1.1.2 1.2.7s-.2 1.1-.7 1.2l-3.1.8c-.1 0-.2.1-.2.3l-.2 1.8c0 .3 0 .5.2.7s.4.3.6.4h.1 12.6c.5 0 1-.4 1-1v-.1l-.2-1.8c0-.1-.1-.2-.2-.3l-3.1-.8c-.5-.1-.9-.7-.7-1.2.1-.5.7-.9 1.2-.7l3.1.8c.9.2 1.6 1 1.7 1.9l.2 1.8v.4c.1 1.5-1.2 2.9-2.9 2.9z"/></g></svg>