<svg enable-background="new 0 0 30 30" viewBox="0 0 30 30" fill="none" xmlns="http://www.w3.org/2000/svg"><path d="m0 0h30v30h-30z"/><g fill="#c1c9d3"><path d="m20.4 11.3v-1c0-2.9-2.4-5.2-5.3-5.3-3 0-5.4 2.4-5.5 5.4v1c-1.5.6-2.6 2-2.6 3.7v5c0 2.2 1.8 4 4 4h8c2.2 0 4-1.8 4-4v-5c0-1.8-1.1-3.2-2.6-3.8zm-5.3-4.2c1.8 0 3.3 1.5 3.3 3.3v.7h-6.7v-.7c0-1.9 1.5-3.3 3.4-3.3zm5.9 13c0 1.1-.9 2-2 2h-8c-1.1 0-2-.9-2-2v-5c0-1.1.9-2 2-2h8c1.1 0 2 .9 2 2z"/><path d="m15 15c-.6 0-1 .4-1 1v3.7c0 .6.4 1 1 1s1-.4 1-1v-3.7c0-.6-.4-1-1-1z"/></g></svg>