<svg enable-background="new 0 0 33 33" fill="none" viewBox="0 0 33 33" xmlns="http://www.w3.org/2000/svg"><path d="m0 0h33v33h-33z"/><path d="m21.1 25.2c-.5 0-1-.1-1.4-.3-2.6-1.2-4.8-2.8-6.8-4.7-2.2-1.8-3.9-4.3-4.9-6.9-.4-1.1-.3-2.3.4-3.3l.7-1.1c.8-1.2 2.5-1.5 3.7-.7.3.2.6.5.8.8l.1.2c1.1 1.8.8 4.1-.7 5.6l-1.3 1.2c.7 1 1.5 1.9 2.5 2.7.9.9 1.9 1.7 2.9 2.4l1.1-1.1c1.5-1.5 3.8-1.8 5.6-.7l.2.1c.6.4 1 .9 1.2 1.6s.1 1.4-.3 2c-.2.3-.5.6-.8.8l-1 .7c-.6.5-1.3.7-2 .7zm-2.3-2.9c.5.3 1.1.6 1.6.8s1.1.1 1.5-.2l1-.7c.1-.1.1-.1.2-.2s.1-.3.1-.5-.1-.3-.3-.4l-.2-.1c-1-.6-2.3-.4-3.1.4zm-7.5-12.5h-.1c-.2 0-.3.1-.4.3l-.8 1c-.3.4-.4 1-.2 1.5.2.6.5 1.2.8 1.7l.9-.9c.8-.8 1-2.1.4-3.1l-.1-.2c0-.1-.1-.1-.2-.2s-.2-.1-.3-.1z" fill="#c1c9d3"/></svg>