<svg enable-background="new 0 0 30 30"  fill="none" viewBox="0 0 30 30" xmlns="http://www.w3.org/2000/svg"><path d="m0 0h30v30h-30z"/><g fill="#fff"><path d="m15 4.9c-5.5 0-10 4.5-10 10s4.5 10 10 10 10-4.5 10-10-4.5-9.9-10-10zm.1 18.4c-4.6 0-8.4-3.7-8.4-8.3 0 0 0 0 0-.1 0-4.6 3.7-8.3 8.2-8.3h.1c4.6 0 8.3 3.7 8.3 8.3.1 4.6-3.6 8.4-8.2 8.4z"/><path d="m20.1 14.9c0-.2-.1-.4-.3-.6l-3.3-3.3c-.1-.1-.3-.2-.5-.2-.4 0-.7.3-.7.7 0 .2.1.4.2.5l1.2 1.2 1.2 1-2.1-.1h-5.1c-.4 0-.7.3-.7.7 0 .4.3.7.7.7h5.1l2.1-.1-1.2 1-1.2 1.2c-.1.1-.2.3-.2.5 0 .4.3.7.7.7.2 0 .4-.1.5-.2l3.3-3.3c.2.1.3-.1.3-.4z"/></g></svg>